<svg xmlns="http://www.w3.org/2000/svg" xmlns:xlink="http://www.w3.org/1999/xlink" width="237" height="81" viewBox="0 0 237 81" fill="none">
<g >
<path     fill="url(#linear_fill_0_4_0)"  d="M56.4 60.9Q56.4 62.64 54.18 63.84Q51.96 65.04 48.78 65.04Q45.66 65.04 43.44 61.56Q43.56 60.84 43.56 60.42Q43.44 56.1 41.22 54.66Q41.1 53.58 41.1 52.92Q41.1 49.68 39.48 47.16L39.48 46.8Q39.48 42.12 37.68 39.06Q35.88 36 33.18 36Q29.76 36.18 27.96 40.86L27.3 40.86Q25.5 37.8 22.92 37.8Q20.4 37.8 18.54 40.8Q16.8 36.18 13.26 36Q10.68 36 8.94 38.52Q6.66 37.2 6.66 35.64Q6.66 34.5 7.86 33.48Q9.06 32.46 11.1 31.74Q15.18 34.08 23.46 34.08L39.84 34.08Q44.64 34.08 48.18 33.24Q53.04 37.08 53.28 43.62Q53.28 49.32 53.7 52.92Q54.18 56.82 54.84 56.82Q55.44 56.82 55.92 58.02Q56.4 59.28 56.4 60.9ZM42.6 26.28Q46.32 26.28 49.86 25.68Q53.04 26.82 53.04 28.32Q53.04 30.06 49.14 31.26Q45.3 32.46 39.84 32.46L23.46 32.46Q15.48 32.34 11.76 30.24Q12.72 29.4 13.08 28.92Q14.28 27.54 15.42 26.16L15.78 26.16Q16.44 26.22 18.66 26.22Q21.18 26.28 28.02 26.28L42.6 26.28ZM11.82 27.9Q9.9 30.12 7.14 30.18Q6.12 30.18 5.16 29.7Q3.66 28.92 4.2 25.92Q4.74 22.86 6.9 19.5Q11.28 13.2 15 12.84Q15.54 12.84 15.96 13.08Q19.26 14.88 19.26 15.66Q19.2 15.96 22.86 16.2Q26.46 16.38 32.04 16.38L42.6 16.38Q48.06 16.38 51.9 17.58Q55.8 18.78 55.8 20.52Q55.8 22.26 51.9 23.46Q48.06 24.66 42.6 24.66L28.02 24.66Q14.82 24.66 14.82 24.42Q14.58 24.42 11.82 27.9ZM15.18 61.68Q13.14 65.34 9.48 65.46Q8.46 65.46 7.56 65.1Q5.58 64.26 4.98 62.22Q4.38 60.18 5.58 58.26Q8.34 53.22 8.58 45.6Q8.58 42.3 9.96 39.96Q11.34 37.62 13.26 37.62Q14.64 37.62 15.84 39.18Q16.98 40.68 17.52 43.14Q16.62 45.84 16.62 49.32L16.62 55.02Q16.62 56.46 16.68 57.12Q16.02 60.12 15.18 61.68ZM41.88 60.42Q41.88 62.28 39.9 63.6Q37.98 64.92 35.22 64.92Q33.06 64.92 31.38 63.12Q29.7 61.38 28.98 58.5Q29.22 57.06 29.22 55.02L29.22 49.32Q29.22 46.86 28.74 44.64Q29.16 41.52 30.36 39.6Q31.62 37.62 33.18 37.62Q35.1 37.62 36.48 40.32Q37.86 43.02 37.86 46.8Q37.86 50.52 38.46 53.22Q39.06 55.92 39.9 55.92Q40.68 55.92 41.28 57.24Q41.88 58.62 41.88 60.42ZM27.6 55.02Q27.6 59.1 26.22 61.98Q24.84 64.86 22.92 64.86Q21 64.86 19.62 61.98Q18.24 59.1 18.24 55.02L18.24 49.32Q18.24 45.24 19.62 42.3Q21 39.42 22.92 39.42Q24.84 39.42 26.22 42.3Q27.6 45.24 27.6 49.32L27.6 55.02ZM83.58 51.18L83.52 51.54Q83.1 56.94 80.7 60.84Q78.36 64.68 75.54 64.68Q72.66 64.68 71.16 62.28Q69.66 59.88 70.38 56.4Q70.92 53.58 70.5 51.78Q70.08 49.98 68.82 49.98Q68.34 49.98 67.86 50.22Q67.26 50.52 66.78 50.52Q65.4 50.52 64.56 48.84Q63.66 47.1 63.66 44.34Q64.2 38.64 70.92 32.58Q72.78 34.26 75.9 34.26Q78.48 34.26 80.28 33.12Q82.14 31.92 82.26 30.18Q82.62 29.94 83.28 29.7Q85.2 31.92 84.84 36.24L84.72 37.26Q84.48 37.38 84.3 37.38Q81.42 37.68 79.56 39.96Q77.76 42.12 78.12 45Q78.42 47.58 79.98 49.32Q81.54 51.06 83.58 51.18ZM116.82 57.54Q116.82 60.72 113.94 62.94Q111.06 65.16 106.92 65.16L98.04 65.16Q93.9 65.16 91.02 62.82Q88.14 60.48 88.14 57.12Q88.14 53.94 87.06 51.72Q85.98 49.56 84.48 49.56L83.94 49.56Q82.44 49.56 81.24 48.18Q79.98 46.74 79.74 44.76Q79.5 42.6 80.88 40.92Q82.26 39.24 84.48 39Q86.7 38.76 88.26 37.14Q89.82 35.52 89.82 33.36Q90 30.36 92.64 28.86Q96.6 29.28 97.74 30.18Q97.92 32.34 100.62 33.6Q101.04 34.92 102.66 35.7Q104.28 36.48 106.62 36.48Q107.64 36.48 108.12 36.42Q108.54 36.36 109.44 36.36Q112.26 36.36 114.18 37.56Q116.16 38.82 116.4 40.74Q116.58 42.96 114.42 44.76Q112.26 46.5 108.78 46.92Q105.3 47.4 102.96 48.72Q100.62 49.98 100.5 51.54Q100.5 53.04 101.46 54.06Q102.48 55.14 103.86 55.14Q105.3 55.14 106.26 54.42Q107.28 53.64 107.28 52.56Q107.28 51.48 108.66 50.7Q110.04 49.92 112.02 49.92Q114.06 49.98 115.44 52.14Q116.76 54.3 116.82 57.54ZM75.9 32.64Q73.98 32.64 72.54 31.8Q71.16 31.02 71.16 29.88Q71.16 28.74 70.08 27.96Q68.94 27.12 67.38 27.12Q65.82 27.12 64.68 25.74Q63.6 24.42 63.6 22.44Q63.6 20.52 64.68 19.2Q65.82 17.82 67.38 17.82Q68.94 17.82 70.08 16.98Q71.16 16.2 71.16 15Q71.16 13.86 72.54 13.08Q73.98 12.24 75.9 12.24Q77.82 12.24 79.26 13.08Q80.64 13.86 80.64 15Q80.64 16.14 83.4 16.98Q86.22 17.82 90 17.82Q93.78 17.82 96.6 16.98Q99.36 16.14 99.36 15Q99.36 13.86 100.74 13.08Q102.18 12.24 104.1 12.24Q106.02 12.24 107.46 13.08Q108.84 13.86 108.84 15Q108.84 16.2 109.92 16.98Q111.06 17.82 112.62 17.82Q114.18 17.82 115.32 19.2Q116.4 20.52 116.4 22.44Q116.4 24.42 115.32 25.74Q114.18 27.12 112.62 27.12Q111.06 27.12 109.92 27.96Q108.84 28.74 108.84 29.88Q108.84 31.02 107.46 31.8Q106.02 32.64 104.1 32.64Q102.18 32.64 100.74 31.8Q99.36 31.02 99.36 29.88Q99.36 28.8 96.6 27.96Q93.78 27.12 90 27.12Q86.22 27.12 83.4 27.96Q80.64 28.8 80.64 29.88Q80.64 31.02 79.26 31.8Q77.82 32.64 75.9 32.64ZM160.44 55.5Q161.28 55.2 161.34 51.96Q161.28 48.78 160.44 48.42Q159.66 48.78 159.6 51.96Q159.66 55.2 160.44 55.5ZM150.3 55.5Q151.32 55.2 151.38 51.96Q151.32 48.78 150.3 48.42Q149.82 48.42 149.46 49.5Q149.16 50.46 149.16 51.96Q149.22 55.2 150.3 55.5ZM139.8 55.5Q140.88 55.2 140.94 51.96Q140.94 50.46 140.64 49.5Q140.28 48.42 139.8 48.42Q138.78 48.78 138.66 51.96Q138.78 55.2 139.8 55.5ZM177.72 60.36Q177.72 62.34 174.84 63.78Q171.9 65.22 167.82 65.22L132.18 65.22Q128.1 65.22 125.16 63.78Q122.28 62.34 122.28 60.36Q122.28 58.38 123.18 56.94Q124.08 55.5 125.4 55.5Q126.72 55.5 127.62 53.22Q128.52 51 128.52 47.76Q128.52 46.62 129 45.48Q130.38 46.02 132.36 46.02Q134.88 46.02 137.76 45.18Q140.46 44.34 144.66 44.34Q149.94 44.34 154.32 45.6L160.68 47.52Q164.7 48.66 168.18 48.66Q170.16 48.66 171.48 48.3Q171.54 51.24 172.5 53.4Q173.4 55.5 174.6 55.5Q175.92 55.5 176.82 56.94Q177.72 58.38 177.72 60.36ZM132.36 44.34Q128.88 44.34 128.4 42.78Q128.04 41.46 130.02 39.96Q132 38.46 135.18 37.62Q138.42 36.78 140.4 35.52Q142.44 34.2 142.14 33.18Q141.84 32.22 139.56 31.5Q137.28 30.78 134.46 30.78Q131.52 30.78 129.54 29.82Q127.5 28.86 127.5 27.42Q127.5 26.04 129.48 25.02Q131.4 24.06 134.22 24.06Q140.88 24.06 140.58 23.58Q140.22 23.1 133.92 23.1Q131.34 23.1 129.42 22.14Q127.56 21.18 127.5 19.92Q127.44 18.6 129.24 17.64Q131.04 16.68 133.62 16.68Q136.32 16.68 137.94 16.08Q139.62 15.48 139.5 14.52Q139.38 13.62 140.88 13.02Q142.44 12.36 144.66 12.36Q146.88 12.36 148.68 13.02Q150.42 13.68 150.54 14.52Q150.6 15.3 153.12 15.9Q153.18 16.08 153.24 16.26Q155.22 19.56 161.58 21.54Q164.94 22.5 167.52 22.5Q172.44 22.5 173.4 19.74Q173.46 19.5 173.46 19.26Q173.7 19.74 173.7 19.92Q173.7 21.18 170.82 22.14Q167.88 23.1 163.86 23.1L161.22 23.1Q152.22 23.16 151.68 23.58Q151.98 24.06 161.94 24.06L163.74 24.06Q167.88 24.06 170.7 25.02Q173.64 26.04 173.64 27.42Q173.64 28.8 170.76 29.82Q167.88 30.84 163.86 30.9Q159.78 31.02 157.14 31.38Q154.5 31.8 154.56 32.34Q154.68 32.7 156.48 32.7Q159.18 32.7 163.68 31.86Q165.84 31.44 168.12 31.44Q172.56 31.5 173.34 33.12Q173.76 34.32 171.48 35.52Q169.26 36.72 165.6 37.26Q162.12 37.8 162.12 38.64Q162.18 39.6 166.2 40.5Q170.1 41.4 172.08 42.84Q174.12 44.34 173.1 45.66Q172.02 47.04 168.18 47.04Q164.88 47.04 161.16 45.96L154.74 44.04Q150.54 42.72 144.66 42.72Q140.04 42.72 137.34 43.56Q134.76 44.34 132.36 44.34ZM162.06 19.98Q158.52 18.96 156.3 17.22Q154.08 15.48 154.56 14.1Q155.1 12.48 158.82 12.48Q161.22 12.48 164.28 13.32Q167.82 14.4 170.04 16.14Q172.26 17.88 171.78 19.2Q171.36 20.82 167.52 20.82Q164.82 20.82 162.06 19.98Z">
</path>
</g>
<path d="M208.7 75.375C212.8 75.375 216.1 71.25 216.1 66.125C216.1 61.375 213.2 57.5 209.5 56.875L209.5 18.5C213.2 18 216.1 14 216.1 9.25C216.1 4.125 212.8 -2.02067e-16 208.7 -4.53119e-16C206.9 -5.63337e-16 205.2 0.75 204 2.125C202.6 0.75 201 -9.24608e-16 199.2 -1.03483e-15C195.1 -1.28588e-15 191.8 4.125 191.8 9.25C191.8 14 194.7 17.875 198.4 18.5L198.4 57C194.7 57.5 191.8 61.5 191.8 66.25C191.8 71.375 195.1 75.5 199.2 75.5C201 75.5 202.7 74.75 203.9 73.375C205.2 74.625 206.9 75.375 208.7 75.375Z"   fill="#98CCF6" >
</path>
<path d="M213 77.375C216.9 77.375 220.1 73.375 220.1 68.5C220.1 64 217.4 60.25 213.8 59.75L213.8 23.125C217.3 22.625 220.1 18.875 220.1 14.375C220.1 9.5 216.9 5.5 213 5.5C211.3 5.5 209.7 6.25 208.5 7.5C207.3 6.25 205.7 5.5 204 5.5C200.1 5.5 196.9 9.5 196.9 14.375C196.9 18.875 199.6 22.625 203.2 23.125L203.2 59.875C199.7 60.375 196.9 64.125 196.9 68.625C196.9 73.5 200.1 77.5 204 77.5C205.7 77.5 207.3 76.75 208.5 75.5C209.8 76.625 211.3 77.375 213 77.375Z"   fill="#FFFFFF" >
</path>
<path d="M220.1 68.625C220.1 73.5 216.9 77.5 213 77.5C211.3 77.5 209.7 76.75 208.5 75.5C207.3 76.75 205.7 77.5 204 77.5C200.1 77.5 196.9 73.5 196.9 68.625C196.9 64.125 199.6 60.375 203.2 59.875L203.2 23.125C199.7 22.625 196.9 18.875 196.9 14.375C196.9 9.5 200.1 5.5 204 5.5C205.7 5.5 207.3 6.25 208.5 7.5C209.7 6.25 211.3 5.5 213 5.5C216.9 5.5 220.1 9.5 220.1 14.375C220.1 18.875 217.4 22.625 213.8 23.125L213.8 59.875C217.4 60.25 220.1 64 220.1 68.625ZM222.2 68.625C222.2 63.625 219.6 59.25 215.9 57.75L215.9 25.25C219.6 23.75 222.2 19.375 222.2 14.375C222.2 8.125 218.1 3 213.1 3C211.5 3 209.9 3.5 208.6 4.5C207.2 3.5 205.7 3 204.1 3C199.1 3 195 8.125 195 14.375C195 19.375 197.6 23.75 201.3 25.25L201.3 57.75C197.6 59.25 195 63.625 195 68.625C195 74.875 199.1 80 204.1 80C205.7 80 207.3 79.5 208.6 78.5C210 79.5 211.5 80 213.1 80C218.1 80 222.2 74.875 222.2 68.625Z"   fill="#05498F" >
</path>
<path     fill="#FFFFFF"  d="M212.8 74.875C215.6 74.875 217.9 72 217.9 68.5">
</path>
<path d="M211.8 74.875C211.8 74.125 212.3 73.625 212.8 73.625C215 73.625 216.8 71.375 216.8 68.625C216.8 67.875 217.3 67.375 217.8 67.375C218.4 67.375 218.8 68 218.8 68.625C218.8 72.875 216.1 76.25 212.7 76.25C212.2 76.25 211.8 75.625 211.8 74.875Z"   fill="#05498F" >
</path>
<path     fill="#FFFFFF"  d="M212.8 19.75C215.6 19.75 217.9 16.875 217.9 13.375">
</path>
<path d="M211.8 19.75C211.8 19 212.3 18.5 212.8 18.5C215 18.5 216.8 16.25 216.8 13.5C216.8 12.75 217.3 12.25 217.8 12.25C218.4 12.25 218.8 12.875 218.8 13.5C218.8 17.75 216.1 21.125 212.7 21.125C212.2 21 211.8 20.375 211.8 19.75Z"   fill="#05498F" >
</path>
<path d="M209.6 71.75C209.582 71.75 209.564 71.7505 209.546 71.7516C209.528 71.7528 209.51 71.7544 209.492 71.7566C209.474 71.7588 209.456 71.7616 209.439 71.7649C209.421 71.7682 209.403 71.772 209.385 71.7764C209.368 71.7808 209.35 71.7857 209.333 71.7912C209.315 71.7966 209.298 71.8027 209.281 71.8092C209.263 71.8157 209.246 71.8228 209.229 71.8304C209.212 71.8379 209.196 71.846 209.179 71.8547C209.162 71.8633 209.146 71.8724 209.13 71.882C209.113 71.8916 209.097 71.9017 209.081 71.9123C209.066 71.923 209.05 71.9341 209.035 71.9456C209.019 71.9572 209.004 71.9692 208.989 71.9817C208.974 71.9942 208.959 72.0072 208.945 72.0206C208.93 72.034 208.916 72.0478 208.902 72.0621C208.888 72.0764 208.875 72.0911 208.861 72.1062C208.848 72.1213 208.835 72.1368 208.822 72.1527C208.809 72.1686 208.797 72.1849 208.785 72.2016C208.773 72.2183 208.761 72.2353 208.75 72.2527C208.738 72.2701 208.727 72.2879 208.717 72.3059C208.706 72.324 208.695 72.3424 208.685 72.3611C208.675 72.3798 208.666 72.3988 208.657 72.4181C208.647 72.4374 208.638 72.4569 208.63 72.4768C208.621 72.4966 208.613 72.5167 208.606 72.5371C208.598 72.5574 208.591 72.578 208.584 72.5988C208.577 72.6196 208.57 72.6406 208.564 72.6618C208.558 72.683 208.553 72.7043 208.547 72.7259C208.542 72.7474 208.537 72.7691 208.533 72.7909C208.529 72.8128 208.525 72.8347 208.521 72.8567C208.518 72.8788 208.515 72.901 208.512 72.9232C208.509 72.9455 208.507 72.9678 208.505 72.9902C208.504 73.0126 208.502 73.0351 208.501 73.0575C208.5 73.08 208.5 73.1025 208.5 73.125C208.5 73.1475 208.5 73.17 208.501 73.1925C208.502 73.2149 208.504 73.2374 208.505 73.2598C208.507 73.2822 208.509 73.3045 208.512 73.3267C208.515 73.349 208.518 73.3712 208.521 73.3933C208.525 73.4153 208.529 73.4372 208.533 73.4591C208.537 73.4809 208.542 73.5026 208.547 73.5241C208.553 73.5456 208.558 73.567 208.564 73.5882C208.57 73.6094 208.577 73.6304 208.584 73.6512C208.591 73.672 208.598 73.6925 208.606 73.7129C208.613 73.7333 208.621 73.7534 208.63 73.7732C208.638 73.793 208.647 73.8126 208.657 73.8319C208.666 73.8512 208.675 73.8702 208.685 73.8889C208.695 73.9076 208.706 73.926 208.717 73.9441C208.727 73.9621 208.738 73.9799 208.75 73.9973C208.761 74.0147 208.773 74.0317 208.785 74.0484C208.797 74.0651 208.809 74.0814 208.822 74.0973C208.835 74.1132 208.848 74.1287 208.861 74.1438C208.875 74.1589 208.888 74.1736 208.902 74.1879C208.916 74.2022 208.93 74.216 208.945 74.2294C208.959 74.2428 208.974 74.2558 208.989 74.2683C209.004 74.2808 209.019 74.2928 209.035 74.3044C209.05 74.3159 209.066 74.327 209.081 74.3376C209.097 74.3482 209.113 74.3583 209.13 74.368C209.146 74.3776 209.162 74.3867 209.179 74.3953C209.196 74.404 209.212 74.4121 209.229 74.4196C209.246 74.4272 209.263 74.4343 209.281 74.4408C209.298 74.4473 209.315 74.4534 209.333 74.4588C209.35 74.4642 209.368 74.4692 209.385 74.4736C209.403 74.478 209.421 74.4818 209.439 74.4851C209.456 74.4884 209.474 74.4912 209.492 74.4934C209.51 74.4956 209.528 74.4973 209.546 74.4984C209.564 74.4995 209.582 74.5 209.6 74.5C209.618 74.5 209.636 74.4995 209.654 74.4984C209.672 74.4973 209.69 74.4956 209.708 74.4934C209.726 74.4912 209.744 74.4884 209.761 74.4851C209.779 74.4818 209.797 74.478 209.815 74.4736C209.832 74.4692 209.85 74.4642 209.867 74.4588C209.885 74.4534 209.902 74.4473 209.919 74.4408C209.937 74.4343 209.954 74.4272 209.971 74.4196C209.988 74.4121 210.004 74.404 210.021 74.3953C210.038 74.3867 210.054 74.3776 210.07 74.368C210.087 74.3583 210.103 74.3482 210.119 74.3376C210.134 74.327 210.15 74.3159 210.166 74.3044C210.181 74.2928 210.196 74.2808 210.211 74.2683C210.226 74.2558 210.241 74.2428 210.255 74.2294C210.27 74.216 210.284 74.2022 210.298 74.1879C210.312 74.1736 210.325 74.1589 210.339 74.1438C210.352 74.1287 210.365 74.1132 210.378 74.0973C210.391 74.0814 210.403 74.0651 210.415 74.0484C210.427 74.0317 210.439 74.0147 210.45 73.9973C210.462 73.9799 210.473 73.9621 210.484 73.9441C210.494 73.926 210.505 73.9076 210.515 73.8889C210.525 73.8702 210.534 73.8512 210.544 73.8319C210.553 73.8126 210.562 73.793 210.57 73.7732C210.579 73.7534 210.587 73.7333 210.594 73.7129C210.602 73.6925 210.609 73.672 210.616 73.6512C210.623 73.6304 210.63 73.6094 210.636 73.5882C210.642 73.567 210.647 73.5456 210.653 73.5241C210.658 73.5026 210.663 73.4809 210.667 73.4591C210.671 73.4372 210.675 73.4153 210.679 73.3932C210.682 73.3712 210.685 73.349 210.688 73.3267C210.691 73.3045 210.693 73.2822 210.695 73.2598C210.696 73.2374 210.698 73.2149 210.699 73.1925C210.7 73.17 210.7 73.1475 210.7 73.125C210.7 73.1025 210.7 73.08 210.699 73.0575C210.698 73.0351 210.696 73.0126 210.695 72.9902C210.693 72.9678 210.691 72.9455 210.688 72.9232C210.685 72.901 210.682 72.8788 210.679 72.8567C210.675 72.8347 210.671 72.8127 210.667 72.7909C210.663 72.769 210.658 72.7474 210.653 72.7259C210.647 72.7043 210.642 72.683 210.636 72.6618C210.63 72.6406 210.623 72.6196 210.616 72.5988C210.609 72.578 210.602 72.5574 210.594 72.5371C210.587 72.5167 210.579 72.4966 210.57 72.4768C210.562 72.4569 210.553 72.4374 210.544 72.4181C210.534 72.3988 210.525 72.3798 210.515 72.3611C210.505 72.3424 210.494 72.324 210.484 72.3059C210.473 72.2879 210.462 72.2701 210.45 72.2527C210.439 72.2353 210.427 72.2183 210.415 72.2016C210.403 72.1849 210.391 72.1686 210.378 72.1527C210.365 72.1368 210.352 72.1213 210.339 72.1062C210.325 72.0911 210.312 72.0764 210.298 72.0621C210.284 72.0478 210.27 72.034 210.255 72.0206C210.241 72.0072 210.226 71.9942 210.211 71.9817C210.196 71.9692 210.181 71.9572 210.166 71.9456C210.15 71.9341 210.134 71.923 210.119 71.9123C210.103 71.9018 210.087 71.8917 210.07 71.882C210.054 71.8724 210.038 71.8633 210.021 71.8547C210.004 71.846 209.988 71.8379 209.971 71.8304C209.954 71.8228 209.937 71.8157 209.919 71.8092C209.902 71.8027 209.885 71.7966 209.867 71.7912C209.85 71.7857 209.832 71.7808 209.815 71.7764C209.797 71.772 209.779 71.7682 209.761 71.7649C209.744 71.7616 209.726 71.7588 209.708 71.7566C209.69 71.7544 209.672 71.7528 209.654 71.7516C209.636 71.7505 209.618 71.75 209.6 71.75Z"   fill="#05498F" >
</path>
<defs>
<linearGradient id="linear_fill_0_4_0" x1="0" y1="40.5" x2="180" y2="40.5" gradientUnits="userSpaceOnUse">
<stop offset="0" stop-color="#7948EA"  />
<stop offset="1" stop-color="#00BAAD" stop-opacity="0.55" />
</linearGradient>
</defs>
</svg>
