<svg xmlns="http://www.w3.org/2000/svg" xmlns:xlink="http://www.w3.org/1999/xlink" width="111.496826171875" height="193.69325256347656" viewBox="0 0 111.496826171875 193.69325256347656" fill="none">
<path    stroke="rgba(240, 192, 85, 1)" stroke-width="3" stroke-linejoin="round" stroke-linecap="round"  d="M25.8913 149.601L22.1266 144.943L31.3361 152.788L23.2317 138.291L37.4143 154.323L24.1527 132.151L43.861 154.665L25.442 126.182L50.8602 156.2L26.7313 120.554L56.5701 155.347L28.5732 114.072L62.8325 155.688L29.9413 107.605L67.8057 155.858L32.7042 101.806L73.4037 154.95L34.3619 96.5188L78.6728 153.982L36.8089 92.0012L83.1147 150.919L40.0176 88.8491L86.3147 146.401L48.4657 91.7297L87.8789 138.334L54.9124 93.0942L87.3264 129.124L60.9906 92.9236L85.9382 118.542L66.1479 91.5592L83.646 109.979L70.0159 89.6831L80.5147 99.2341L73.1472 88.6597L77.5677 91.0475L74.4365 87.2953">
</path>
<path d="M83.0318 95.5879C82.8368 95.9549 82.5658 96.2809 82.2928 96.6789C80.3218 92.8079 78.3988 89.0319 76.4648 85.2349C77.9808 83.8389 79.6048 82.5519 80.9828 81.0409C89.7048 71.4749 92.8458 60.4359 88.2218 48.1339C83.5018 35.5779 73.5728 29.1159 60.5478 27.8549C48.1988 26.6589 37.7348 31.1449 29.6968 40.6379C17.3598 55.2099 20.3928 76.0729 36.2168 86.6439C36.6788 86.9529 37.1158 87.2969 37.5488 87.6129C35.9438 90.3139 34.3928 92.9229 32.7098 95.7569C31.2508 93.6619 29.9828 91.6959 28.5708 89.8399C21.4968 80.5429 15.3818 70.6129 9.26583 60.6839L9.23692 60.637C8.20656 58.9638 7.18196 57.3001 7.30282 55.1769C7.34983 54.3489 7.14782 53.4529 6.84182 52.6729C6.30183 51.2939 5.71282 49.9059 4.92382 48.6609C4.19183 47.5049 2.57383 47.1089 1.52183 47.5419C0.458825 47.9789 -0.100181 49.0419 0.0148247 50.5539C0.057824 51.1119 0.187829 51.6799 0.375817 52.2079C1.15482 54.4019 2.45483 56.2059 4.27583 57.6949C5.24383 58.4869 6.15083 59.4539 6.79983 60.5159C13.1818 70.9519 19.5428 81.3949 27.0678 91.0739C28.7168 93.1959 30.1968 95.4479 31.6368 97.4759C30.4258 100.487 29.1658 103.274 28.1778 106.153C26.7718 110.252 25.5158 114.405 24.2808 118.56C21.8568 126.716 20.5958 135.034 20.5368 143.57C20.5168 146.459 21.5048 148.504 23.6788 150.124C25.0998 151.184 26.5218 152.306 28.0998 153.079C30.5798 154.295 33.1888 155.247 35.7498 156.295C36.4548 156.584 37.1828 156.818 37.8738 157.068C35.8068 167.66 33.7708 178.094 31.7118 188.644C31.1949 188.644 30.6709 188.636 30.1423 188.627L30.1417 188.627C28.8727 188.607 27.5775 188.586 26.2908 188.68C25.1828 188.761 24.0148 189.024 23.0248 189.512C21.4648 190.283 21.4588 191.922 22.9078 192.907C23.3078 193.179 23.7958 193.388 24.2708 193.474C27.7228 194.099 30.9118 193.38 33.8048 191.423C34.1568 191.185 34.5978 190.476 34.4808 190.242C33.7212 188.718 34.0472 187.211 34.3656 185.738C34.4316 185.433 34.4972 185.13 34.5528 184.828C36.1088 176.371 37.7708 167.933 39.4078 159.491C39.5358 158.829 39.7608 158.185 39.9478 157.506C51.2408 159.926 62.2938 159.984 73.3718 157.478C73.4818 157.964 73.5538 158.232 73.6028 158.504C74.5718 163.888 75.4718 169.285 76.5268 174.652C77.3758 178.973 78.4358 183.252 79.3458 187.561C79.5628 188.591 80.0138 189.221 81.0658 189.445C84.0848 190.09 87.1308 190.267 90.1848 189.871C92.0748 189.626 93.1738 188.603 93.1798 187.359C93.1858 186.03 91.9228 184.889 89.9738 184.895C88.1458 184.902 86.3118 185.23 84.4948 185.514C83.4088 185.684 82.3508 186.04 81.0388 186.373C79.1518 176.492 76.4938 166.975 75.3288 156.956C76.8128 156.38 78.1438 155.901 79.4458 155.353C82.4188 154.103 85.1758 152.512 87.4178 150.136C88.5288 148.959 89.1588 147.597 89.3398 145.966C90.3668 136.707 90.0808 127.475 88.1878 118.374C86.9458 112.401 85.1218 106.55 83.5228 100.653L83.519 100.639C83.2937 99.8052 83.1077 99.1171 83.6178 98.2469C85.7748 94.5679 87.7538 90.7849 89.9358 87.1209C94.9658 78.6749 99.1738 69.8189 103.196 60.8689C104.109 58.8359 105.242 56.9919 106.676 55.2879C107.675 54.0999 108.66 52.8309 109.309 51.4389C109.791 50.4069 109.97 49.0899 109.841 47.9509C109.648 46.2449 107.706 45.4369 106.235 46.3439C105.594 46.7389 105.04 47.3559 104.596 47.9789C103.151 50.0089 102.525 52.3409 102.456 54.7969C102.396 56.8939 101.996 58.8669 101.076 60.7629C99.7418 63.5109 98.5938 66.3549 97.1728 69.0569C92.5078 77.9259 87.7578 86.7509 83.0318 95.5879ZM56.9798 29.8269C46.1788 30.0989 37.2238 34.2799 30.5458 42.8209C18.1548 58.6709 24.4308 80.9639 43.2938 87.9049C54.9328 92.1879 65.9058 90.3309 75.7598 82.9409C83.7178 76.9729 87.9458 68.8529 88.2128 59.2529C88.1188 50.4509 85.0378 43.3989 78.8618 37.8089C72.6778 32.2109 65.3148 29.6169 56.9798 29.8269ZM104.303 54.4249C104.761 51.9019 105.248 49.5579 107.595 47.7609C108.151 50.2009 106.835 52.6929 104.303 54.4249ZM5.04679 55.8769C3.1338 54.0849 2.04179 52.1559 1.8278 49.3649C4.09379 50.2039 5.23179 52.7099 5.04679 55.8769ZM41.1038 89.2539C39.3828 88.5269 39.2478 88.5859 38.2018 90.1849C38.0078 90.4819 37.8268 90.7889 37.6478 91.0959C34.0288 97.3109 30.7328 103.67 28.8118 110.655C28.3038 112.504 27.6878 114.323 27.1108 116.152C24.2298 125.288 22.3948 134.582 22.6218 144.227C22.6608 145.872 23.1598 147.024 24.3698 148.084C27.5908 150.903 31.3438 152.721 35.3538 154.03C46.0268 157.513 56.9328 158.188 67.9898 156.45C72.5678 155.731 77.0658 154.595 81.1218 152.272C82.8858 151.261 84.4488 149.879 86.0298 148.577C86.8018 147.942 87.2288 147.066 87.2888 145.975C87.4298 143.425 87.8248 140.884 87.8788 138.334C88.0888 128.387 86.6738 118.657 83.9518 109.085C81.9638 102.097 79.7818 95.2039 76.1898 88.8419C75.7418 88.0489 75.2468 87.2819 74.6808 86.3509C73.7868 86.8439 73.1718 87.1919 72.5498 87.5269C65.9278 91.0799 58.9108 92.6649 51.3848 91.8799C47.8188 91.5079 44.4008 90.6469 41.1038 89.2539ZM90.7008 187.238C88.5998 186.758 86.5468 186.73 84.5958 187.746C84.6707 187.758 84.7455 187.769 84.8204 187.781C86.8205 188.094 88.8164 188.407 90.7008 187.238ZM24.5168 191.298C26.4358 191.746 28.3088 191.807 30.0398 190.751C28.1388 190.321 26.2798 190.302 24.5168 191.298Z" fill-rule="evenodd"  fill="#000000" >
</path>
<path d="M32.7338 18.1919C33.1308 19.8459 33.4188 21.5299 33.8868 23.1619C33.9998 23.5519 34.6378 23.7919 35.0338 24.1009C35.2778 23.7219 35.6668 23.3129 35.6318 23.1429C34.3678 16.9599 33.1428 11.0659 31.8788 5.17893C31.8248 4.92893 31.3168 4.54492 31.1338 4.59992C30.7148 4.72592 30.1118 5.03293 30.0428 5.36292C29.9038 6.02392 29.9718 6.77392 30.1288 7.44592C30.9698 11.0349 31.8738 14.6079 32.7338 18.1919Z"   fill="#000000" >
</path>
<path d="M91.4158 15.2169C89.0019 18.2749 86.6448 21.3779 84.2758 24.4709C83.8388 25.0419 83.3458 25.7429 84.1378 26.3109C84.8249 26.8029 85.2928 26.1609 85.6898 25.6499C86.2998 24.8669 86.8809 24.0619 87.5098 23.2949C90.3838 19.7899 93.2758 16.2999 96.1468 12.7929C96.5358 12.3179 96.8388 11.7729 97.1948 11.2419C96.9408 10.8819 96.7648 10.4609 96.6328 10.4739C96.1288 10.5259 95.4768 10.5629 95.1738 10.8839C93.8618 12.2719 92.5998 13.7169 91.4158 15.2169Z"   fill="#000000" >
</path>
<path d="M62.8978 2.42193C62.9038 2.35193 62.9208 2.27992 62.9138 2.21092C62.8258 1.38392 63.4548 0.111926 62.0598 0.00492712C60.8358 -0.0880752 61.0508 1.15692 60.9618 1.92993C60.3888 6.92293 59.8558 11.9209 59.3178 16.9179C59.2728 17.3379 59.1798 17.8029 59.3118 18.1749C59.4298 18.5089 59.7858 18.8589 60.1168 18.9759C60.2948 19.0389 60.7008 18.6719 60.8918 18.4149C61.0448 18.2099 61.0488 17.8819 61.0828 17.6029C61.7128 12.5459 62.3368 7.48793 62.9628 2.42993L62.8978 2.42193Z"   fill="#000000" >
</path>
<path d="M110.337 32.1709C110.805 31.7889 111.182 31.2949 111.497 30.9629C111.335 29.9959 110.886 29.7079 110.242 29.8879C109.852 29.9959 109.493 30.2749 109.167 30.5359C105.794 33.2389 102.43 35.9509 99.0688 38.6689C98.7418 38.9339 98.3838 39.2089 98.1778 39.5609C98.0258 39.8179 97.9538 40.3419 98.1068 40.5079C98.3458 40.7689 98.8228 40.9769 99.1668 40.9349C99.5468 40.8889 99.9148 40.5679 100.247 40.3129C100.978 39.7539 101.682 39.1589 102.399 38.5809C105.047 36.4469 107.703 34.3229 110.337 32.1709Z"   fill="#000000" >
</path>
<path d="M8.26984 22.9989C7.94383 22.6619 7.49783 22.4409 7.23883 22.2579C6.36183 22.2819 5.91983 23.0029 6.24783 23.6559C6.43283 24.0239 6.74983 24.3339 7.04083 24.6379C9.72884 27.4539 12.4218 30.2649 15.1208 33.0709C15.4628 33.4259 15.8018 33.8359 16.2278 34.0379C16.5478 34.1899 17.1338 34.1969 17.3668 33.9959C17.5968 33.7979 17.6368 33.2369 17.5658 32.8729C17.5058 32.5639 17.1908 32.2869 16.9498 32.0339C14.0638 29.0159 11.1768 25.9979 8.26984 22.9989Z"   fill="#000000" >
</path>
<path d="M62.8728 70.8449C66.0668 69.1609 68.3888 66.6189 69.9718 63.4169C70.5968 62.1519 71.0218 60.7829 71.4808 59.4419C71.5051 59.371 71.5311 59.2987 71.5574 59.2255C71.7976 58.558 72.0654 57.8136 71.3318 57.2909C70.6035 56.7719 70.0615 57.2525 69.5446 57.7108C69.464 57.7824 69.3839 57.8534 69.3038 57.9199C69.1398 58.0559 68.9798 58.1979 68.8138 58.3319C61.7648 64.0109 52.4778 63.5799 45.9608 57.2729C45.6568 56.9779 45.3768 56.6269 45.0158 56.4279C44.2628 56.0129 43.3628 56.4129 43.1878 57.2519C43.0898 57.7249 43.1238 58.2459 43.1958 58.7319C43.7148 62.2639 45.0558 65.4359 47.5008 68.0719C50.0378 70.8069 53.1638 72.3029 57.4368 72.3339C59.0328 72.3099 61.0148 71.8239 62.8728 70.8449ZM68.3818 61.2579C60.5778 65.7189 53.1048 65.3539 45.8968 60.1249C46.0288 64.8629 51.0048 69.8199 55.9408 70.2909C61.1348 70.7859 67.1298 66.5589 68.3818 61.2579Z" fill-rule="evenodd"  fill="#000000" >
</path>
<path d="M68.0408 51.8049C69.3088 51.8419 70.4498 50.5839 70.4848 49.1109C70.5148 47.8249 69.4048 46.6179 68.1418 46.5639C66.9768 46.5129 65.9208 47.7219 65.8788 49.1549C65.8358 50.6099 66.7808 51.7689 68.0408 51.8049Z"   fill="#000000" >
</path>
<path d="M47.1108 46.4509C45.8728 46.5059 44.9168 47.7109 44.9828 49.1319C45.0518 50.6119 45.9108 51.6059 47.0838 51.5639C48.4218 51.5159 49.3958 50.4289 49.3618 49.0219C49.3258 47.5449 48.3208 46.3959 47.1108 46.4509Z"   fill="#000000" >
</path>
</svg>
