<svg xmlns="http://www.w3.org/2000/svg" xmlns:xlink="http://www.w3.org/1999/xlink" width="128" height="128" viewBox="0 0 128 128" fill="none">
<path d="M100.425 120.375C96.325 120.375 92.275 118.775 89.275 115.8C84.775 111.3 83.475 104.55 85.825 98.75L36.65 49.55C30.875 51.9 24.1 50.6 19.6 46.1C15.05 41.55 13.725 34.5 16.35 28.625C16.675 27.875 17.375 27.325 18.175 27.175C18.975 27.025 19.825 27.275 20.4 27.875L26.225 33.7L31.025 28.9L25.2 23.075C24.625 22.5 24.35 21.65 24.5 20.85C24.65 20.05 25.2 19.35 25.95 19.025C31.85 16.4 38.875 17.725 43.425 22.275C47.925 26.775 49.225 33.525 46.875 39.325L96.1 88.5C101.875 86.15 108.65 87.45 113.15 91.95C117.7 96.5 119.025 103.55 116.4 109.425C116.075 110.175 115.375 110.725 114.575 110.875C113.775 111.025 112.925 110.775 112.35 110.175L106.5 104.35L101.7 109.15L107.525 114.975C108.1 115.55 108.375 116.4 108.225 117.2C108.075 118 107.525 118.7 106.775 119.025C104.75 119.925 102.575 120.375 100.425 120.375ZM37.175 44.05C37.825 44.05 38.45 44.3 38.95 44.775L90.65 96.475C91.45 97.275 91.6 98.475 91.075 99.475C88.75 103.625 89.475 108.9 92.85 112.275C95 114.425 97.925 115.5 100.875 115.4L96.45 110.975C95.975 110.5 95.725 109.875 95.725 109.2C95.725 108.525 96 107.9 96.45 107.425L104.8 99.075C105.775 98.1 107.35 98.1 108.325 99.075L112.75 103.5C112.875 100.575 111.775 97.625 109.625 95.475C106.25 92.1 100.975 91.375 96.825 93.7C95.85 94.25 94.625 94.075 93.825 93.275L42.125 41.6C41.325 40.8 41.175 39.6 41.7 38.6C44.025 34.45 43.3 29.175 39.925 25.8C37.775 23.65 34.85 22.575 31.9 22.675L36.325 27.1C36.8 27.575 37.05 28.2 37.05 28.875C37.05 29.55 36.775 30.175 36.325 30.65L28 39C27.525 39.475 26.9 39.725 26.225 39.725C25.55 39.725 24.925 39.45 24.45 39L20.025 34.575C19.9 37.5 21 40.45 23.15 42.6C26.525 45.975 31.8 46.7 35.95 44.375C36.325 44.15 36.75 44.05 37.175 44.05Z"   fill="url(#linear_fill_vvIf37Cx3S1tQ4j-dlINw)" >
</path>
<path d="M27.33 118.78C26.655 118.78 26.025 118.5 25.55 118.05L17.38 109.88C16.905 109.405 16.65 108.775 16.65 108.1C16.65 107.425 16.93 106.805 17.38 106.33L50.18 73.5298C51.155 72.5548 52.725 72.5548 53.7 73.5298C54.675 74.5048 54.675 76.0748 53.7 77.0498L22.7 108.1L27.33 112.73L58.35 81.6998C59.325 80.7248 60.905 80.7248 61.88 81.6998C62.855 82.6748 62.855 84.2548 61.88 85.2298L29.1 118.05C28.625 118.5 27.98 118.78 27.33 118.78ZM81.03 64.4998C80.38 64.4998 79.75 64.2548 79.25 63.7798C78.275 62.8048 78.275 61.2248 79.25 60.2498L102.78 36.7298C103.605 35.9048 104.925 35.7498 105.9 36.3998C105.975 36.4498 107.875 37.7048 110.55 40.3798C112.05 41.8798 113.705 44.3048 115.18 46.7798C114.855 42.6048 113.98 37.7248 111.93 33.5498C108.555 26.6998 99.105 17.3548 95.18 13.6298L89.18 19.6298L98.1 28.5498C99.075 29.5248 99.075 31.1048 98.1 32.0798L74.58 55.5998C73.605 56.5748 72.025 56.5748 71.05 55.5998C70.075 54.6248 70.075 53.0548 71.05 52.0798L92.8 30.3298L83.87 21.3998C82.895 20.4248 82.895 18.8548 83.87 17.8798L93.33 8.42982C94.28 7.47982 95.78 7.45482 96.78 8.32982C97.38 8.87982 111.7 21.8048 116.4 31.3798C121.75 42.2298 120.155 56.3298 120.08 56.9298C119.955 58.0298 119.1 58.9248 118 59.0998C116.9 59.2748 115.83 58.6998 115.33 57.6998C113.98 54.8248 109.825 46.7498 107 43.9498C106.125 43.0748 105.35 42.3798 104.75 41.8798L82.8 63.7498C82.3 64.2498 81.68 64.4998 81.03 64.4998Z"   fill="url(#linear_fill_YyQo8je7dDBsJQunfIbC1)" >
</path>
<defs>
<linearGradient id="linear_fill_vvIf37Cx3S1tQ4j-dlINw" x1="15.013763427734375" y1="69.03187561035156" x2="117.73623657226562" y2="69.03187561035156" gradientUnits="userSpaceOnUse">
<stop offset="0" stop-color="#7948EA"  />
<stop offset="1" stop-color="#00BAAD"  />
</linearGradient>
<linearGradient id="linear_fill_YyQo8je7dDBsJQunfIbC1" x1="100.73077392578125" y1="7.6898193359375" x2="42.20941162109375" y2="133.6126480102539" gradientUnits="userSpaceOnUse">
<stop offset="0" stop-color="#FF5733"  />
<stop offset="1" stop-color="#2A82E4" stop-opacity="0" />
</linearGradient>
</defs>
</svg>
