<svg xmlns="http://www.w3.org/2000/svg" xmlns:xlink="http://www.w3.org/1999/xlink" width="362" height="362" viewBox="0 0 362 362" fill="none">
<path d="M0 277.038L362 277.038L362 276.857L0 276.857L0 277.038Z"   fill="#EBEBEB" >
</path>
<path d="M37.981 283.931L61.9598 283.931L61.9598 283.75L37.981 283.75L37.981 283.931Z"   fill="#EBEBEB" >
</path>
<path d="M123.905 281.969L154.697 281.969L154.697 281.788L123.905 281.788L123.905 281.969Z"   fill="#EBEBEB" >
</path>
<path d="M67.6724 286.473L81.5658 286.473L81.5658 286.292L67.6724 286.292L67.6724 286.473Z"   fill="#EBEBEB" >
</path>
<path d="M314.701 289.441L325.727 289.441L325.727 289.26L314.701 289.26L314.701 289.441Z"   fill="#EBEBEB" >
</path>
<path d="M283.424 289.441L308.25 289.441L308.25 289.26L283.424 289.26L283.424 289.441Z"   fill="#EBEBEB" >
</path>
<path d="M222.992 284.228L240.245 284.228L240.245 284.047L222.992 284.047L222.992 284.228Z"   fill="#EBEBEB" >
</path>
<path d="M171.588 39.8201C173.872 39.8201 175.722 41.671 175.722 43.9541L175.722 240.433C175.722 242.717 173.872 244.567 171.588 244.567L31.7909 244.567C29.5105 244.563 27.6641 242.714 27.6641 240.433L27.6641 43.9179C27.6839 41.6517 29.5245 39.824 31.7909 39.8201L171.588 39.8201ZM31.7909 244.386C29.6105 244.382 27.8451 242.614 27.8451 240.433L27.8451 43.9179C27.8451 41.7375 29.6105 39.9689 31.7909 39.9649L171.588 39.9649C173.769 39.9689 175.537 41.7364 175.541 43.9179L175.541 240.433C175.537 242.615 173.769 244.382 171.588 244.386L31.7909 244.386Z" fill-rule="evenodd"  fill="#EBEBEB" >
</path>
<path d="M328.196 39.8201C330.46 39.8279 332.297 41.6545 332.316 43.9179L332.316 240.433C332.316 242.711 330.474 244.559 328.196 244.567L188.392 244.567C186.111 244.563 184.262 242.715 184.258 240.433L184.258 43.9179C184.282 41.6506 186.125 39.8239 188.392 39.8201L328.196 39.8201ZM328.196 244.386L188.392 244.386C186.211 244.382 184.443 242.615 184.439 240.433L184.439 43.9179C184.443 41.7364 186.211 39.9689 188.392 39.9649L328.196 39.9649C330.378 39.9689 332.145 41.7364 332.15 43.9179L332.15 240.433C332.145 242.615 330.378 244.382 328.196 244.386Z" fill-rule="evenodd"  fill="#EBEBEB" >
</path>
<path d="M73.6743 90.1452C72.576 89.9157 71.432 90.1539 70.5176 90.804C70.5176 90.804 69.8877 87.966 69.4171 88.2845C68.9465 88.6031 69.1565 91.2384 69.1565 91.2384C69.1565 91.2384 68.838 91.9624 67.7809 94.3372C44.1568 92.8892 43.0563 107.369 44.9749 113.328C46.8066 106.399 51.7515 105.291 57.0729 106.24C57.4711 104.024 62.4957 101.302 66.4415 102.692C70.5249 101.078 74.6735 102.88 74.6735 102.88C74.6735 102.88 77.7649 99.5717 82.1524 99.4196C85.2149 96.5743 90.9128 97.0594 92.1581 98.9345C96.6541 95.9444 101.635 94.9815 106.081 100.607C105.472 94.4096 98.6668 81.5151 77.5839 92.2955C75.6798 90.5651 75.0861 90.0004 75.0861 90.0004C75.0861 90.0004 74.2318 87.5171 73.6743 87.4012C73.1169 87.2854 73.6743 90.1452 73.6743 90.1452Z"   fill="#E6E6E6" >
</path>
<path d="M109.483 61.1128C109.483 61.1128 109.614 59.339 109.302 59.1146C108.991 58.8901 108.6 60.816 108.6 60.816C108.289 60.6085 107.943 60.459 107.579 60.3743C107.211 60.3046 106.833 60.3046 106.464 60.3743C106.464 60.3743 106.834 58.434 106.464 58.5136C106.095 58.5933 105.509 60.2802 105.509 60.2802C105.509 60.2802 105.11 60.6567 103.822 61.8368C89.5227 54.5968 84.9398 63.3355 84.5488 67.5347C87.5389 63.7192 90.9128 64.3563 93.9608 66.369C94.8007 65.102 98.6596 64.7545 100.737 66.6731C102.641 66.8314 104.426 67.6601 105.777 69.0116C107.558 68.2989 109.536 68.2475 111.351 68.8668C114.023 67.9184 117.433 69.7501 117.708 71.2488C121.328 70.59 124.658 71.3284 125.918 76.02C127.2 72.0018 126.425 62.1554 110.425 63.2124C109.701 61.6196 109.483 61.1128 109.483 61.1128Z"   fill="#E6E6E6" >
</path>
<path d="M276.829 117.339C279.826 113.516 283.2 114.153 286.241 116.173C287.08 114.899 290.939 114.558 293.017 116.477C294.942 116.615 296.754 117.44 298.121 118.801C299.902 118.087 301.879 118.034 303.696 118.649C306.361 117.701 309.778 119.532 310.046 121.031C313.666 120.379 317.003 121.118 318.256 125.802C319.545 121.791 318.763 111.945 302.762 113.002C302.038 111.409 301.828 110.902 301.828 110.902C301.828 110.902 301.959 109.121 301.64 108.904C301.322 108.687 300.916 110.613 300.916 110.613C300.285 110.17 299.498 110.01 298.744 110.171C298.744 110.171 299.113 108.238 298.744 108.318C298.375 108.397 297.796 110.077 297.796 110.077C297.796 110.077 297.39 110.461 296.109 111.641C281.803 104.401 277.227 113.139 276.829 117.339Z"   fill="#E6E6E6" >
</path>
<path d="M57.2756 53.2792C58.3037 52.5552 60.0268 52.8593 60.3381 53.4747C61.7861 52.7506 63.3572 52.5914 64.5156 54.452C64.5156 52.5479 62.9083 48.3922 56.1317 50.9551C55.6104 50.3687 55.4511 50.1732 55.4511 50.1732C55.4511 50.1732 55.2701 49.3913 55.1036 49.3334C54.9371 49.2754 55.0239 50.166 55.0239 50.166C54.6963 50.0651 54.3419 50.099 54.0393 50.2601C54.0393 50.2601 53.9452 49.3768 53.7931 49.4637C53.6411 49.5506 53.5759 50.347 53.5759 50.347C53.5759 50.347 53.4529 50.5642 53.0474 51.2447C45.9088 49.9922 45.0834 54.3797 45.4671 56.2476C46.2563 54.2059 47.7984 54.0321 49.384 54.5027C49.5795 53.8439 51.2085 53.185 52.3596 53.7787C53.21 53.5687 54.1077 53.6741 54.8864 54.0756C55.5618 53.5327 56.4095 53.2501 57.2756 53.2792Z"   fill="#E6E6E6" >
</path>
<path d="M279.16 63.5454C280.202 64.7038 278.892 66.2604 276.676 66.369C274.142 66.4921 272.55 64.3925 272.861 63.1545C269.628 62.8277 266.418 62.2932 263.253 61.5544C266.099 74.7023 278.45 69.5546 285.299 63.3427C283.258 63.5248 281.209 63.5925 279.16 63.5454Z"   fill="#E6E6E6" >
</path>
<path d="M310.857 51.1145C308.292 53.1058 305.603 54.9315 302.806 56.5807C303.573 57.5726 303.045 60.15 300.677 61.1057C298.621 61.9311 296.797 61.0333 297.238 59.5853C295.398 60.4828 293.511 61.2779 291.584 61.9673C300.402 64.7402 313.774 64.2479 310.857 51.1145Z"   fill="#E6E6E6" >
</path>
<path d="M253.458 68.1213C253.53 70.4961 254.747 73.4427 256.919 76.3966L258.142 71.7269C256.37 70.8278 254.781 69.6049 253.458 68.1213Z"   fill="#EBEBEB" >
</path>
<path d="M258.794 72.0525L257.476 77.1205C258.327 78.1855 259.251 79.189 260.242 80.1251L266.128 74.6372C263.582 74.0942 261.117 73.2254 258.794 72.0525Z"   fill="#EBEBEB" >
</path>
<path d="M267.033 74.8254L260.814 80.6174C265.302 84.6204 270.717 87.4419 276.568 88.8276L271.5 75.4264C270.002 75.3033 268.511 75.1027 267.033 74.8254Z"   fill="#EBEBEB" >
</path>
<path d="M272.325 75.4842L277.393 89.0303L278.117 89.1823L284.778 74.8833C280.661 75.5255 276.486 75.7268 272.325 75.4842Z"   fill="#EBEBEB" >
</path>
<path d="M285.647 74.7528L278.863 89.327C285.155 90.3927 291.604 90.0864 297.767 88.4292L298.187 88.3206L288.051 74.3257C287.225 74.4922 286.429 74.6298 285.647 74.7528Z"   fill="#EBEBEB" >
</path>
<path d="M291.83 73.5295C290.809 73.7684 289.803 73.9856 288.833 74.1739L298.838 87.9806L302.35 70.1628C298.946 71.5853 295.427 72.7114 291.83 73.5295Z"   fill="#EBEBEB" >
</path>
<path d="M303.153 69.8298L299.584 87.9297C307.374 85.6709 313 82.1015 316.721 77.7068L304.16 69.3591C303.827 69.5039 303.494 69.6704 303.153 69.8298Z"   fill="#EBEBEB" >
</path>
<path d="M304.92 68.9899L317.17 77.1421C317.626 76.5702 318.046 75.9837 318.444 75.3901L313.492 63.1472C310.946 65.5162 308.055 67.4861 304.92 68.9899Z"   fill="#EBEBEB" >
</path>
<path d="M319.899 51.6718L321.202 52.0628C320.799 50.535 320.315 49.0294 319.754 47.5522C320.095 48.8995 320.145 50.304 319.899 51.6718Z"   fill="#EBEBEB" >
</path>
<path d="M321.405 52.8882L319.769 52.3887C319.245 54.9492 318.189 57.3714 316.67 59.4984L322.318 58.159C322.143 56.382 321.838 54.6204 321.405 52.8882Z"   fill="#EBEBEB" >
</path>
<path d="M322.383 58.9119L316.004 60.425C315.4 61.1859 314.752 61.9112 314.064 62.597L318.929 74.6371C321.753 69.9891 322.817 64.617 322.383 58.9119Z"   fill="#EBEBEB" >
</path>
<path d="M181 293.162C103.472 293.162 40.6235 296.831 40.6235 301.358C40.6235 305.884 103.472 309.553 181 309.553C258.528 309.553 321.376 305.884 321.376 301.358C321.376 296.831 258.528 293.162 181 293.162Z"   fill="#F5F5F5" >
</path>
<path d="M132.449 296.116L150.635 296.116L150.592 295.124L139.153 295.971L138.834 291.743L149.151 291.019L148.833 286.675L138.516 287.399L138.262 283.996L149.383 283.178L149.05 278.595L131.276 279.906L132.449 296.116Z"   fill="#407BFF" >
</path>
<path d="M161.054 296.145L154.357 296.145L153.039 278.262L164.087 277.444C165.666 277.269 167.262 277.332 168.822 277.632C169.917 277.888 170.892 278.508 171.588 279.391C172.338 280.368 172.764 281.555 172.804 282.787C172.914 283.864 172.73 284.95 172.268 285.929C171.826 286.834 171.158 287.61 170.328 288.181C169.631 288.638 168.866 288.982 168.062 289.202C168.687 289.338 169.289 289.562 169.85 289.868C170.27 290.173 170.653 290.526 170.994 290.917C171.373 291.309 171.718 291.733 172.022 292.184L174.484 296.145L166.592 296.145L164.21 292.416C163.876 291.813 163.426 291.282 162.885 290.852C162.381 290.562 161.8 290.431 161.22 290.476L160.634 290.519L161.054 296.145ZM162.871 281.882C163.727 281.73 164.609 281.862 165.383 282.258C165.867 282.625 166.155 283.194 166.165 283.801C166.208 284.25 166.099 284.702 165.854 285.082C165.616 285.443 165.252 285.701 164.833 285.806C164.268 286 163.686 286.143 163.095 286.233L160.301 286.436L159.975 282.092L162.871 281.882Z" fill-rule="evenodd"  fill="#407BFF" >
</path>
<path d="M191.382 287.486C192.005 287.62 192.605 287.845 193.163 288.152C193.587 288.452 193.972 288.804 194.307 289.202C194.692 289.585 195.036 290.007 195.335 290.461L198.796 296.145L190.948 296.145L187.465 290.7C187.137 290.093 186.686 289.56 186.14 289.136C185.642 288.837 185.061 288.705 184.482 288.76L183.896 288.796L184.453 296.167L177.764 296.167L176.316 276.568L187.371 275.728C188.949 275.552 190.545 275.613 192.106 275.909C193.195 276.174 194.164 276.793 194.865 277.668C195.631 278.643 196.071 279.833 196.124 281.071C196.364 283.191 195.408 285.269 193.641 286.465C192.947 286.922 192.184 287.266 191.382 287.486ZM186.191 280.152C187.047 280.001 187.929 280.133 188.703 280.528C189.188 280.896 189.475 281.469 189.478 282.077C189.528 282.529 189.42 282.985 189.174 283.366C188.931 283.725 188.565 283.982 188.146 284.09C187.582 284.278 187.003 284.419 186.415 284.51L183.614 284.72L183.295 280.376L186.191 280.152Z" fill-rule="evenodd"  fill="#407BFF" >
</path>
<path d="M215.433 294.328C213.749 293.643 212.308 292.468 211.299 290.954C210.114 289.113 209.447 286.988 209.366 284.8C209.106 281.296 209.859 278.487 211.69 276.401C213.522 274.316 216.085 273.129 219.654 272.868C223.224 272.608 226.055 273.368 228.118 275.142C228.118 275.142 231.231 277.799 231.615 282.983C231.847 285.11 231.558 287.261 230.775 289.252C230.071 290.897 228.893 292.295 227.394 293.271C225.622 294.357 223.599 294.97 221.522 295.052C219.464 295.276 217.382 295.028 215.433 294.328ZM220.009 277.893C221.267 277.742 222.526 278.167 223.434 279.051C224.31 279.92 224.831 281.361 224.983 283.395C225.164 285.784 224.882 287.479 224.172 288.463C223.371 289.419 222.215 290.008 220.971 290.094C219.727 290.18 218.502 289.756 217.576 288.919C216.708 288.036 216.186 286.501 216.027 284.336C215.868 282.172 216.157 280.557 216.896 279.551C217.623 278.548 218.771 277.936 220.009 277.893Z" fill-rule="evenodd"  fill="#407BFF" >
</path>
<path d="M247.782 296.116L245.566 290.845C245.351 290.189 244.998 289.587 244.531 289.078C244.089 288.698 243.541 288.465 242.96 288.412L242.381 288.354L241.613 296.116L234.895 296.116L236.994 275.047L248.013 276.133C249.601 276.23 251.166 276.564 252.654 277.125C253.681 277.558 254.532 278.323 255.072 279.297C256.113 281.403 255.956 283.904 254.66 285.864C254.067 286.65 253.288 287.277 252.394 287.688C251.627 288.02 250.814 288.23 249.983 288.311C250.577 288.549 251.133 288.874 251.633 289.274C251.996 289.645 252.312 290.058 252.575 290.505C252.888 290.959 253.155 291.445 253.371 291.953L255.022 296.116L247.782 296.116ZM243.235 280L246.131 280.282C247 280.28 247.845 280.56 248.542 281.078C248.954 281.526 249.143 282.135 249.056 282.736C249.018 283.184 248.829 283.605 248.52 283.931C248.221 284.254 247.814 284.458 247.376 284.503C246.788 284.597 246.191 284.633 245.595 284.611L242.808 284.344L243.235 280Z" fill-rule="evenodd"  fill="#407BFF" >
</path>
<g opacity="0.5">
<path d="M138.516 287.399L138.262 283.996L149.383 283.178L149.05 278.595L131.276 279.905L132.449 296.116L150.635 296.116L150.592 295.124L139.153 295.971L138.834 291.743L149.151 291.019L148.833 286.675L138.516 287.399Z"   fill="#FFFFFF" >
</path>
<path d="M166.593 296.145L164.211 292.416C163.876 291.813 163.426 291.282 162.886 290.852C162.381 290.563 161.8 290.431 161.22 290.476L160.634 290.519L161.054 296.145L154.357 296.145L153.039 278.262L164.088 277.444C165.667 277.269 167.262 277.333 168.822 277.632C169.917 277.888 170.892 278.509 171.588 279.391C172.338 280.368 172.764 281.556 172.805 282.787C172.915 283.864 172.73 284.95 172.269 285.929C171.826 286.834 171.158 287.61 170.328 288.181C169.631 288.638 168.867 288.982 168.062 289.202C168.687 289.338 169.289 289.562 169.851 289.868C170.27 290.173 170.654 290.526 170.994 290.918C171.373 291.309 171.718 291.733 172.023 292.185L174.484 296.145L166.593 296.145ZM162.871 281.882C163.727 281.73 164.61 281.862 165.383 282.258C165.867 282.626 166.155 283.194 166.165 283.801C166.208 284.251 166.099 284.702 165.854 285.082C165.617 285.443 165.252 285.701 164.833 285.806C164.268 286 163.686 286.143 163.096 286.233L160.301 286.436L159.975 282.092L162.871 281.882Z" fill-rule="evenodd"  fill="#FFFFFF" >
</path>
<path d="M192.106 275.909C193.195 276.174 194.164 276.793 194.865 277.668C195.631 278.643 196.071 279.833 196.124 281.071C196.364 283.191 195.408 285.269 193.641 286.465C192.947 286.922 192.184 287.266 191.382 287.486C192.005 287.62 192.605 287.845 193.163 288.152C193.587 288.451 193.972 288.804 194.307 289.201C194.692 289.585 195.036 290.007 195.335 290.461L198.796 296.145L190.948 296.145L187.465 290.7C187.137 290.093 186.686 289.56 186.14 289.136C185.642 288.837 185.061 288.705 184.482 288.76L183.896 288.796L184.453 296.166L177.764 296.166L176.316 276.568L187.371 275.728C188.949 275.552 190.545 275.613 192.106 275.909ZM186.191 280.151C187.047 280.001 187.929 280.133 188.703 280.528C189.188 280.896 189.475 281.468 189.478 282.077C189.528 282.529 189.42 282.984 189.174 283.366C188.931 283.724 188.565 283.982 188.146 284.09C187.582 284.278 187.003 284.419 186.415 284.51L183.614 284.72L183.295 280.376L186.191 280.151Z" fill-rule="evenodd"  fill="#FFFFFF" >
</path>
<path d="M215.433 294.327C213.748 293.643 212.308 292.467 211.299 290.954C210.114 289.113 209.446 286.987 209.366 284.8C209.106 281.295 209.859 278.486 211.69 276.401C213.522 274.316 216.085 273.129 219.654 272.868C223.224 272.607 226.055 273.368 228.118 275.141C228.118 275.141 231.231 277.798 231.615 282.982C231.847 285.109 231.558 287.261 230.775 289.252C230.07 290.896 228.893 292.295 227.394 293.27C225.621 294.356 223.599 294.97 221.522 295.051C219.464 295.276 217.381 295.028 215.433 294.327ZM220.008 277.893C221.267 277.741 222.525 278.167 223.433 279.051C224.309 279.92 224.83 281.361 224.982 283.395C225.163 285.784 224.881 287.478 224.171 288.463C223.371 289.419 222.215 290.007 220.971 290.093C219.727 290.18 218.501 289.755 217.576 288.919C216.707 288.036 216.186 286.501 216.026 284.336C215.867 282.171 216.157 280.557 216.895 279.551C217.622 278.548 218.771 277.936 220.008 277.893Z" fill-rule="evenodd"  fill="#FFFFFF" >
</path>
<path d="M248.013 276.134C249.601 276.23 251.166 276.564 252.654 277.125C253.681 277.558 254.532 278.323 255.072 279.297C256.113 281.404 255.956 283.904 254.66 285.864C254.067 286.65 253.288 287.277 252.394 287.689C251.627 288.02 250.814 288.23 249.983 288.311C250.577 288.549 251.133 288.874 251.633 289.274C251.996 289.645 252.312 290.058 252.575 290.505C252.888 290.96 253.155 291.445 253.371 291.953L255.022 296.116L247.782 296.116L245.566 290.845C245.351 290.189 244.998 289.587 244.531 289.079C244.089 288.699 243.541 288.466 242.96 288.413L242.381 288.355L241.613 296.116L234.895 296.116L236.994 275.048L248.013 276.134ZM243.235 280L246.131 280.282C247 280.281 247.845 280.56 248.542 281.079C248.954 281.526 249.143 282.135 249.056 282.736C249.018 283.184 248.829 283.605 248.52 283.931C248.221 284.255 247.814 284.458 247.376 284.503C246.788 284.597 246.191 284.633 245.595 284.612L242.808 284.344L243.235 280Z" fill-rule="evenodd"  fill="#FFFFFF" >
</path>
</g>
<path d="M221.023 243.923C221.023 243.923 220.074 251.503 222.471 250.946C224.867 250.388 223.919 245.733 222.471 243.8C220.907 241.671 220.357 243.264 221.023 243.923Z"   fill="#407BFF" >
</path>
<path d="M216.078 283.895C216.078 283.895 217.243 289.716 218.894 288.702C220.545 287.689 218.67 284.503 217.142 283.431C215.462 282.259 215.455 283.576 216.078 283.895Z"   fill="#407BFF" >
</path>
<path d="M188.276 284.098C188.276 284.098 183.947 288.159 185.684 289.028C187.422 289.897 189.131 286.617 189.232 284.757C189.341 282.708 188.24 283.396 188.276 284.098Z"   fill="#407BFF" >
</path>
<path d="M220.089 241.896C220.089 241.896 222.239 248.144 224.744 245.906C227.249 243.669 224.143 241.027 221.711 240.694C219.032 240.324 219.104 241.903 220.089 241.896Z"   fill="#407BFF" >
</path>
<path d="M184.077 258.924C184.077 258.924 184.627 275.438 185.214 282.092C185.8 288.746 195.574 286.422 196.211 282.954C199.904 281.52 213.66 282.859 213.66 282.859C213.66 282.859 219.567 286.747 219.01 283.048C216.968 269.61 223.919 255.601 221.681 243.126C211.307 240.151 184.077 258.924 184.077 258.924Z"   fill="#407BFF" >
</path>
<g opacity="0.2">
<path d="M184.077 258.917C184.077 258.917 184.236 263.731 184.475 269.205C190.832 265.332 196.247 259.069 196.247 259.069C193.926 257.654 191.422 256.565 188.805 255.833C185.909 257.657 184.077 258.917 184.077 258.917Z"   fill="#000000" >
</path>
</g>
<path d="M183.744 302.444C185.959 305.224 222.319 304.992 227.184 302.444C232.049 299.895 216.1 289.412 216.36 280.637C188.703 273.433 188.189 283.62 188.189 283.62C187.683 290.244 181.529 299.664 183.744 302.444Z"   fill="#407BFF" >
</path>
<path d="M178.611 303.957C185.069 305.311 189.522 303.363 189.522 303.363C189.609 302.116 189.18 300.888 188.334 299.968C185.083 296.717 179.465 300.047 178.611 303.957Z"   fill="#263238" >
</path>
<path d="M222.449 302.523C222.449 302.523 226.909 304.478 233.36 303.117C232.512 299.215 226.887 295.877 223.643 299.128C222.794 300.047 222.361 301.275 222.449 302.523Z"   fill="#263238" >
</path>
<path d="M214.717 303.928C214.717 303.928 218.93 306.281 225.026 304.652C224.223 299.967 218.909 295.971 215.839 299.866C215.025 301.059 214.631 302.487 214.717 303.928Z"   fill="#263238" >
</path>
<path d="M205.544 303.942C205.544 303.942 206.717 305.702 214.34 305.571C217.07 301.539 215.919 298.353 208.773 299.367C203.726 300.091 205.544 303.942 205.544 303.942Z"   fill="#263238" >
</path>
<path d="M116.115 225.931C117.643 227.908 121.697 221.435 121.697 221.435C122.588 221.334 123.181 219.748 120.626 220.393C118.302 220.986 114.588 223.955 116.115 225.931Z"   fill="#407BFF" >
</path>
<path d="M98.6595 256.976C99.8251 258.533 103.047 253.537 103.047 253.537C103.742 253.472 104.256 252.241 102.229 252.719C100.412 253.154 97.4939 255.42 98.6595 256.976Z"   fill="#407BFF" >
</path>
<path d="M125.013 276.119C126.852 276.669 126.461 270.747 126.461 270.747C127.011 270.276 126.7 269.009 125.346 270.58C124.144 272.028 123.174 275.569 125.013 276.119Z"   fill="#407BFF" >
</path>
<path d="M142.968 258.99C144.749 259.771 145.104 253.849 145.104 253.849C145.683 253.444 145.524 252.141 143.989 253.531C142.621 254.805 141.187 258.208 142.968 258.99Z"   fill="#407BFF" >
</path>
<path d="M117.527 220.574C118.034 223.89 123.674 220.436 123.674 220.436C124.434 221.066 125.491 219.893 123.189 218.481C121.096 217.193 117.02 217.258 117.527 220.574Z"   fill="#407BFF" >
</path>
<path d="M102.185 250.982C99.398 253.48 106.428 254.24 106.428 254.24C106.428 254.24 119.554 260.293 121.495 263.753C119.771 266.83 125.839 274.838 130.523 270.095C135.207 265.353 146.161 252.951 146.161 252.951C146.161 252.951 140.529 217.012 130.639 212.697C120.966 220.892 112.314 241.917 102.185 250.982Z"   fill="#407BFF" >
</path>
<path d="M72.7837 277.553C78.9305 279.942 83.6437 278.747 83.6437 278.747C83.9355 277.53 83.7125 276.247 83.0283 275.2C80.3567 271.464 74.2607 273.839 72.7837 277.553Z"   fill="#263238" >
</path>
<path d="M102.142 252.611C99.1517 260.843 88.8998 269.379 84.411 272.506C65.1597 285.929 118.548 295.74 121.878 294.444C125.208 293.148 122.052 275.185 126.396 270.117C126.396 270.117 130.494 256.079 102.142 252.611Z"   fill="#407BFF" >
</path>
<path d="M116.528 289.788C116.528 289.788 115.876 294.61 118.96 300.438C122.479 298.549 124.137 292.228 120.119 289.991C119 289.433 117.702 289.359 116.528 289.788Z"   fill="#263238" >
</path>
<path d="M75.2815 281.824C79.7196 286.313 86.2791 283.634 86.2791 283.634C86.2791 283.634 88.328 281.47 87.3651 279.551C84.5559 273.904 77.3449 277.712 75.2815 281.824Z"   fill="#263238" >
</path>
<path d="M82.8835 288.282C89.6239 291.83 94.0041 288.34 94.0041 288.34C94.0041 288.34 97.3634 285.726 93.1787 282.809C87.2636 278.682 82.2536 283.453 82.8835 288.282Z"   fill="#263238" >
</path>
<path d="M258.989 188.03C274.584 155.841 255.623 133.73 245.233 129.589C249.946 119.199 245.19 103.221 238.355 96.3645C240.918 98.5365 244.922 96.2848 244.922 96.2848C239.854 93.5264 233.048 68.5774 202.705 62.6768C175.027 57.2975 161.09 72.7621 150.99 78.431C150.99 78.431 153.234 82.5216 157.861 82.5433C149.137 86.728 141.035 98.2613 140.304 111.576C129.118 111.981 106.384 126.338 107.825 162.075C110.41 226.293 131.123 256.781 168.272 263.16C205.42 269.538 230.963 245.87 258.989 188.03Z"   fill="#407BFF" >
</path>
<g opacity="0.1">
<path d="M182.231 108.875C177.691 104.799 168.033 102.004 158.339 103.3C158.339 103.3 172.696 104.937 182.231 108.875Z"   fill="#000000" >
</path>
</g>
<g opacity="0.1">
<path d="M224.447 119.04C220.234 115.811 211.698 114.008 203.393 115.746C203.393 115.746 215.919 116.253 224.447 119.04Z"   fill="#000000" >
</path>
</g>
<g opacity="0.1">
<path d="M180.45 109.816C177.539 107.275 173.398 106.913 169.691 108.875C173.297 108.903 176.894 109.218 180.45 109.816Z"   fill="#000000" >
</path>
</g>
<g opacity="0.2">
<path d="M121.038 135.707C117.754 135.92 114.503 136.481 111.337 137.379C108.911 143.902 107.507 151.787 107.782 161.17C114.515 153.314 120.017 142.433 121.038 135.707Z"   fill="#000000" >
</path>
</g>
<g opacity="0.2">
<path d="M257.252 157.238C256.6 163.096 258.388 172.826 261.784 181.391C264.259 174.732 265.274 167.618 264.76 160.533C262.353 159.226 259.842 158.125 257.252 157.238Z"   fill="#000000" >
</path>
</g>
<g opacity="0.1">
<path d="M152.467 104.292C150.085 104.372 143.323 104.676 148.268 116.006C153.749 128.568 167.374 124.036 160.388 109.708C158.751 106.341 155.74 104.184 152.467 104.292Z"   fill="#000000" >
</path>
</g>
<g opacity="0.1">
<path d="M233.997 127.656C243.184 123.116 241.056 118.28 240.288 116.6C239.231 114.269 236.755 113.755 233.961 114.993C222.073 120.256 223.803 132.702 233.997 127.656Z"   fill="#000000" >
</path>
</g>
<path d="M167.295 98.1525C166.904 98.9453 166.914 99.8771 167.321 100.662C167.728 101.446 168.485 101.99 169.358 102.127C174.537 102.895 179.459 104.88 183.722 107.919C184.767 108.72 186.233 108.669 187.219 107.796C188.189 106.94 188.956 105.88 189.463 104.69C193.894 94.1198 173.036 87.0608 167.295 98.1525Z"   fill="#FFFFFF" >
</path>
<path d="M188.711 102.808C191.093 98.7245 184.251 93.3452 180.747 97.5661C176.417 102.808 185.974 107.427 188.711 102.808Z"   fill="#263238" >
</path>
<path d="M226.272 113.635C227.502 112.508 228.147 110.879 228.024 109.215C227.934 108.179 227.759 107.153 227.502 106.146C223.513 90.1453 194.437 92.8531 196.928 107.876C197.163 109.2 197.629 110.471 198.304 111.634C199.352 113.408 201.317 114.433 203.372 114.276C209.495 113.847 215.647 114.09 221.718 115C223.365 115.267 225.043 114.763 226.272 113.635Z"   fill="#FFFFFF" >
</path>
<path d="M202.177 105.899C203.56 108.245 209.403 106.819 207.158 103.64C205.464 101.23 200.794 103.554 202.177 105.899Z"   fill="#263238" >
</path>
<path d="M190.144 144.547C229.899 151.019 234.055 131.964 235.423 119.163C232.99 125.201 215.245 126.954 197.464 125.201C179.682 123.449 161.626 121.466 152.894 109.693C152.894 109.693 146.291 137.394 190.144 144.547Z"   fill="#263238" >
</path>
<g opacity="0.5">
<path d="M227.864 148.934C221.32 130.378 201.156 132.753 191.534 135.967C174.991 125.947 159.635 126.794 149.325 132.709C149.325 132.709 184.902 158.332 227.864 148.934Z"   fill="#407BFF" >
</path>
</g>
<path d="M179.791 122.407C179.592 125.573 181.752 128.403 184.859 129.046C188.153 129.864 192.222 127.294 193.163 123.84L179.791 122.407Z"   fill="#FFFFFF" >
</path>
<path d="M165.029 118.273C165.029 118.273 165.21 123.681 168.453 124.926C170.915 125.867 175.222 124.528 176.598 121.632L165.029 118.273Z"   fill="#FFFFFF" >
</path>
<path d="M156.71 111.424C155.476 113.35 155.85 115.892 157.586 117.382C159.374 119.047 162.835 118.845 164.63 116.998L156.71 111.424Z"   fill="#FFFFFF" >
</path>
<path d="M203.719 130.248C206.441 130.74 209.164 125.114 209.164 125.114L197.138 124.456C197.464 127.648 200.722 129.734 203.719 130.248Z"   fill="#FFFFFF" >
</path>
<path d="M217.135 128.423C219.56 127.648 219.039 123.891 219.039 123.891L213.073 124.398C213.696 126.895 215.694 128.879 217.135 128.423Z"   fill="#FFFFFF" >
</path>
<path d="M227.705 125.81C229.14 125.354 230.023 123.913 229.776 122.428L223.535 123.746C224.219 125.374 225.996 126.253 227.705 125.81Z"   fill="#FFFFFF" >
</path>
<path d="M199.607 147.58C199.787 144.413 197.607 141.596 194.495 140.977C191.194 140.181 187.14 142.787 186.227 146.248L199.607 147.58Z"   fill="#FFFFFF" >
</path>
<path d="M217.555 146.385C217.555 146.385 215.231 141.506 211.763 141.658C209.135 141.781 205.71 144.727 205.616 147.935L217.555 146.385Z"   fill="#FFFFFF" >
</path>
<path d="M226.098 143.33C226.098 143.33 225.584 138.255 223.122 138.009C221.66 137.85 220.335 141.064 220.422 144.525L226.098 143.33Z"   fill="#FFFFFF" >
</path>
<path d="M174.629 135.077C172.109 133.73 167.548 139.891 167.548 139.891L179.139 144.004C179.863 140 177.387 136.554 174.629 135.077Z"   fill="#FFFFFF" >
</path>
<path d="M162.444 129.907C160.019 129.133 158.274 132.507 158.274 132.507L163.436 135.533C164.37 133.136 163.892 130.363 162.444 129.907Z"   fill="#FFFFFF" >
</path>
<path d="M159.114 127.953C157.939 127.011 156.252 127.077 155.153 128.105L159.722 132.564C160.693 131.09 160.433 129.125 159.114 127.953Z"   fill="#FFFFFF" >
</path>
<path d="M137.357 103.025C141.274 104.915 143.757 103.387 143.757 103.387C143.757 103.387 151.627 85.9967 147.052 92.1652C142.874 97.7979 139.232 102.171 137.357 103.025Z"   fill="#407BFF" >
</path>
<path d="M187.045 54.5823C185.547 58.6656 188.826 61.6268 188.826 61.6268C188.826 61.6268 219.278 70.7057 213.341 65.8332C208.121 61.5399 195.48 62.8576 187.045 54.5823Z"   fill="#407BFF" >
</path>
<path d="M197.348 55.3499C196.699 57.7098 197.039 60.2321 198.289 62.3365C198.289 62.3365 217.272 70.5611 213.652 65.8841C210.467 61.7572 202.459 63.3862 197.348 55.3499Z"   fill="#407BFF" >
</path>
<path d="M53.5759 156.456C56.4719 159.714 60.6204 158.237 60.6204 158.237C60.6204 158.237 83.0645 135.757 75.9548 138.668C69.7139 141.223 64.8559 152.959 53.5759 156.456Z"   fill="#407BFF" >
</path>
<path d="M70.228 223.274C74.2389 221.602 75.3683 216.758 75.3683 216.758C75.3683 216.758 61.8151 188.24 61.8079 195.929C61.8079 211.046 70.5683 211.459 70.228 223.274Z"   fill="#407BFF" >
</path>
<path d="M309.836 191.295C309.836 191.295 313.333 196.305 317.076 194.09C308.446 181.601 304.942 172.138 300.945 166.701C296.391 160.511 309.836 191.295 309.836 191.295Z"   fill="#407BFF" >
</path>
<path d="M54.2419 152.764C55.9962 154.471 58.37 155.388 60.8159 155.305C60.8159 155.305 73.247 149.535 76.5629 137.56C71.6614 139.327 63.7408 152.105 54.2419 152.764Z"   fill="#407BFF" >
</path>
<path d="M96.4005 189.138C98.5501 190.308 101.085 190.548 103.416 189.804C95.1625 185.004 96.5164 176.939 92.2665 173.92C87.4229 170.481 96.4005 189.138 96.4005 189.138Z"   fill="#407BFF" >
</path>
<path d="M163.979 49.6374C163.262 41.7603 177.698 26.9256 174.368 27.512C170.719 28.1346 152.525 40.2834 151.106 49.4709C149.687 58.6585 159.396 74.7965 163.617 76.5558C171.059 76.0273 176.743 71.5746 178.299 67.0569C178.299 67.0569 164.695 57.5146 163.979 49.6374Z"   fill="#263238" >
</path>
<path d="M229.725 88.2267C233.476 88.1544 245.733 78.7351 247.405 71.2923C249.078 63.8496 240.31 51.4547 236.241 47.5234C234.069 45.4166 240.448 61.7355 237.537 67.542C234.627 73.3485 221.363 76.5704 221.363 76.5704C221.189 80.4799 224.187 85.5842 229.725 88.2267Z"   fill="#263238" >
</path>
<g opacity="0.3">
<path d="M171.486 39.0961C172.255 39.0842 172.981 38.7411 173.477 38.1549C174.165 37.0906 173.427 35.744 172.341 34.9186C170.567 33.5648 168.388 32.9494 166.281 32.3629C164.951 32.0213 163.647 31.5859 162.379 31.0597C161.991 30.9002 161.684 30.5927 161.524 30.2054C161.499 30.114 161.527 30.0163 161.597 29.952C161.726 29.8485 161.881 29.7832 162.046 29.7638C165.477 28.9695 169.081 29.4534 172.182 31.1249C173.173 31.6606 174.361 32.5584 174.426 33.7892C174.427 33.8654 174.46 33.9376 174.516 33.9894C174.572 34.0412 174.647 34.0682 174.723 34.0643C174.8 34.0606 174.872 34.0264 174.923 33.9693C174.975 33.9123 175.001 33.8371 174.998 33.7603C174.94 32.5801 174.057 31.4941 172.457 30.6181C169.238 28.8774 165.498 28.363 161.93 29.1701C161.659 29.2195 161.408 29.345 161.206 29.5321C161.014 29.7348 160.935 30.0197 160.996 30.2923C161.187 30.864 161.618 31.3239 162.176 31.552C163.467 32.0812 164.796 32.5167 166.151 32.8552C168.301 33.4562 170.335 34.0281 172.022 35.3168C172.869 35.9684 173.514 37.0544 173.029 37.7785C172.626 38.2287 172.054 38.4911 171.45 38.5024C169.316 38.663 167.17 38.5511 165.065 38.1694C163.242 37.866 161.395 37.7255 159.548 37.7495C156.596 37.8843 153.741 38.845 151.309 40.5224C150.476 41.0944 150.1 41.6808 150.15 42.3034C150.237 43.2302 151.229 43.7876 152.793 43.7514C156.956 43.6718 161.191 43.679 165.369 43.7514C165.875 43.7327 166.371 43.8915 166.773 44.2003C166.861 44.2964 166.901 44.4265 166.882 44.5551C166.828 44.7805 166.7 44.9816 166.52 45.127C165.755 45.8215 164.873 46.3732 163.913 46.7561C161.103 47.854 158.172 48.6123 155.182 49.0149C153.314 49.348 151.388 49.681 149.535 50.195C147.961 50.5281 146.506 51.2783 145.321 52.3671C144.228 53.5037 143.598 55.444 144.503 56.9644C145.582 58.7527 148.232 58.9337 150.063 58.0287C151.296 57.339 152.413 56.4594 153.372 55.4223C153.77 55.0169 154.161 54.6549 154.574 54.2929C156.825 52.3095 159.582 50.9888 162.538 50.4774C164.449 50.1444 165.919 50.3109 167.027 50.9914C167.34 51.1474 167.594 51.4017 167.751 51.7154C168.004 52.3381 167.541 53.0838 167.106 53.5978C164.97 56.1246 161.857 57.5002 159.388 58.4124C158.476 58.7527 157.557 59.0568 156.63 59.3681C154.584 60.0086 152.588 60.7974 150.657 61.7284C148.999 62.5754 148.159 63.5963 148.159 64.7475C148.232 65.8959 149.021 66.8736 150.128 67.1873C151.154 67.4702 152.24 67.4425 153.249 67.1077C156.145 66.333 158.635 64.5592 161.054 62.8433C161.51 62.5175 161.966 62.1917 162.429 61.8732C164.985 60.0994 168.381 58.1011 171.935 58.3618C172.137 58.3497 172.336 58.4144 172.493 58.5428C172.569 58.6847 172.589 58.8498 172.551 59.0061C172.37 60.2587 171.407 61.265 170.379 62.17C167.97 64.2942 165.325 66.1333 162.494 67.6507L161.937 67.9403C160.779 68.4873 159.699 69.1834 158.722 70.0109C157.502 71.0216 156.856 72.5666 156.992 74.1449C157.019 74.5207 157.187 74.8725 157.463 75.1295C157.663 75.3047 157.92 75.3996 158.187 75.3974C158.781 75.3634 159.346 75.1317 159.794 74.7386L161.452 73.4209C164.938 70.5266 168.611 67.8661 172.449 65.457C177.539 62.4306 182.47 60.7944 187.103 60.5772C187.179 60.5753 187.252 60.5427 187.303 60.4869C187.355 60.431 187.382 60.3565 187.378 60.2804C187.37 60.1233 187.239 60.0011 187.081 60.0052C182.346 60.2224 177.329 61.8949 172.16 64.9646C168.297 67.3806 164.601 70.0534 161.097 72.9648L159.439 74.2825C159.121 74.5286 158.324 75.0789 157.883 74.7096C157.718 74.5366 157.62 74.3107 157.607 74.0725C157.503 72.6839 158.085 71.332 159.164 70.4526C160.104 69.6599 161.143 68.9931 162.255 68.4688L162.813 68.1792C165.673 66.6397 168.346 64.7738 170.777 62.6189C171.885 61.6415 172.934 60.541 173.101 59.093C173.161 58.7885 173.096 58.4726 172.92 58.217C172.672 57.9504 172.321 57.8028 171.957 57.8115C168.221 57.5436 164.717 59.607 162.082 61.4315C161.618 61.7501 161.155 62.0759 160.699 62.4089C158.324 64.0886 155.877 65.8624 153.075 66.5864C152.175 66.8867 151.205 66.9169 150.288 66.6733C149.418 66.4302 148.791 65.6752 148.709 64.7764C148.709 63.8569 149.433 62.9881 150.881 62.2641C152.802 61.3455 154.79 60.5711 156.825 59.9473C157.752 59.636 158.679 59.3247 159.591 58.9844C162.132 58.0504 165.325 56.6314 167.555 54.0033C168.279 53.091 168.569 52.2584 168.279 51.5344C168.085 51.1104 167.756 50.7619 167.345 50.5426C166.122 49.7896 164.522 49.6014 162.458 49.9561C159.401 50.4765 156.55 51.835 154.219 53.8802C153.799 54.2422 153.394 54.6332 152.996 55.0241C152.06 56.0224 150.976 56.8699 149.781 57.5364C148.174 58.3256 145.879 58.2314 144.966 56.6966C144.199 55.4296 144.771 53.7426 145.69 52.787C146.807 51.7809 148.172 51.0889 149.643 50.7815C151.468 50.2819 153.386 49.9417 155.24 49.6158C158.273 49.2078 161.245 48.4373 164.094 47.3208C165.118 46.9099 166.059 46.319 166.875 45.5759C167.155 45.3411 167.344 45.0159 167.41 44.6564C167.449 44.3664 167.356 44.0742 167.157 43.8601C166.655 43.4178 166.001 43.1869 165.332 43.2157C161.148 43.1578 156.912 43.1505 152.742 43.2157C152.416 43.2084 150.766 43.194 150.679 42.2745C150.643 41.8763 150.939 41.4636 151.591 41.0147C153.944 39.3975 156.702 38.472 159.555 38.3432C161.369 38.3198 163.181 38.4604 164.97 38.7631C167.12 39.1446 169.309 39.2564 171.486 39.0961Z"   fill="#FFFFFF" >
</path>
</g>
<g opacity="0.3">
<path d="M232.368 69.7573C233.946 72.4651 236.726 74.4055 238.97 75.8535C239.781 76.3675 240.607 76.8598 241.432 77.3522C243.25 78.3781 244.999 79.522 246.667 80.7767C247.514 81.4427 248.477 82.4274 248.238 83.3179C248.042 84.0202 247.13 84.4039 246.326 84.4039C245.382 84.3554 244.463 84.0796 243.648 83.6003C241.099 82.2681 239.115 80.2192 237.189 78.2354C236.791 77.8155 236.444 77.468 236.067 77.0915C233.917 74.934 230.992 72.342 227.336 71.618C227 71.5163 226.638 71.5447 226.322 71.6976C226.088 71.8662 225.944 72.1331 225.931 72.4217C225.779 73.6598 226.554 74.8399 227.415 75.9259C229.347 78.3411 231.531 80.5421 233.931 82.4926L234.409 82.8763C235.352 83.5728 236.207 84.38 236.958 85.28C237.834 86.4239 238.102 87.6474 237.682 88.5524C237.611 88.7313 237.477 88.8782 237.305 88.9651C236.907 89.1099 236.429 88.6972 236.009 88.328L235.828 88.1687C235.086 87.5823 234.301 87.0501 233.483 86.5759C230.869 84.9686 227.611 82.9632 225.678 77.4897C224.114 73.0588 218.612 71.3936 213.754 69.9456L212.306 69.4967C212.154 69.4493 211.992 69.5334 211.944 69.6849C211.9 69.8364 211.983 69.9953 212.132 70.0469L213.63 70.4741C218.351 71.8642 223.723 73.5005 225.171 77.6562C227.169 83.3469 230.529 85.4103 233.222 87.0682C234.015 87.5287 234.774 88.0442 235.495 88.6104L235.669 88.7624C236.058 89.1953 236.585 89.4792 237.16 89.566C237.316 89.5827 237.474 89.5675 237.624 89.5226C237.956 89.3937 238.219 89.1309 238.348 88.7986C238.862 87.6909 238.58 86.2501 237.573 84.9324C236.793 83.997 235.903 83.1586 234.923 82.4346L234.453 82.0509C232.081 80.1149 229.923 77.9299 228.016 75.5349C227.234 74.5503 226.525 73.4932 226.655 72.4651C226.67 72.3058 226.713 72.2117 226.786 72.1682C226.977 72.1105 227.181 72.1105 227.372 72.1682C230.876 72.8851 233.721 75.3901 235.814 77.4897C236.205 77.9024 236.56 78.2427 236.929 78.6264C238.884 80.6391 240.904 82.7242 243.532 84.0998C244.427 84.6269 245.439 84.9252 246.478 84.9686C247.54 85.0577 248.536 84.4481 248.94 83.4627C249.201 82.4926 248.621 81.45 247.173 80.3206C245.487 79.0499 243.719 77.8915 241.881 76.8526C241.056 76.3603 240.237 75.8752 239.427 75.3612C237.24 73.9783 234.532 72.0596 233.019 69.4605C232.722 68.9537 232.44 68.2659 232.795 67.8604C233.02 67.6479 233.306 67.5113 233.613 67.4695C235.143 67.246 236.705 67.4987 238.087 68.1935C240.765 69.3221 243.126 71.0925 244.958 73.3484C245.277 73.7466 245.573 74.1593 245.87 74.572C246.594 75.6862 247.48 76.6868 248.498 77.5404C250.062 78.7422 252.625 79.2997 254.073 78.1124C255.311 77.0843 255.123 75.3105 254.305 74.0942C253.343 72.872 252.101 71.8991 250.685 71.256C249.005 70.3582 247.217 69.5618 245.494 68.8378C242.706 67.7472 240.038 66.3741 237.53 64.74C236.701 64.1965 235.968 63.5216 235.358 62.7418C235.227 62.6002 235.148 62.4193 235.133 62.2277C235.14 62.1538 235.183 62.0883 235.249 62.054C235.738 61.8776 236.274 61.8776 236.762 62.054C240.795 63.082 244.878 64.1753 248.904 65.312C250.431 65.7319 251.496 65.5509 251.8 64.7762C252.104 64.0015 251.329 63.2268 251.076 62.9662C249.011 60.952 246.494 59.4623 243.734 58.6222C241.961 58.1263 240.154 57.7634 238.326 57.5362C236.199 57.2876 234.103 56.8218 232.071 56.1461C231.507 55.9965 231.017 55.6496 230.688 55.1687C230.6 54.9855 230.6 54.7727 230.688 54.5895C231.018 54.0656 231.536 53.6876 232.136 53.5325C234.055 52.9316 236.176 52.9967 238.348 53.0691C239.723 53.1415 241.101 53.127 242.475 53.0257C243.051 53.0037 243.585 52.7181 243.923 52.251C244.035 52.0167 244.012 51.7405 243.865 51.527C243.707 51.3118 243.491 51.146 243.242 51.0492C240.004 49.4653 236.358 48.9119 232.795 49.4636C231.043 49.7532 229.949 50.4193 229.631 51.3894C229.583 51.5392 229.663 51.7 229.812 51.7514C229.962 51.7994 230.122 51.7191 230.174 51.5704C230.485 50.622 231.825 50.2093 232.889 50.0283C236.333 49.4961 239.858 50.0318 242.989 51.5632C243.141 51.6214 243.278 51.7158 243.387 51.8383C243.418 51.8815 243.418 51.94 243.387 51.9831C243.127 52.2561 242.771 52.4171 242.395 52.432C241.045 52.5274 239.692 52.5395 238.341 52.4682C236.176 52.403 233.946 52.3306 231.933 52.9678C231.174 53.1691 230.523 53.657 230.116 54.3289C229.964 54.6624 229.964 55.0452 230.116 55.3787C230.501 56.0079 231.113 56.4663 231.825 56.6602C233.892 57.3625 236.027 57.8478 238.196 58.1082C239.974 58.3378 241.733 58.6959 243.459 59.1797C246.132 59.9935 248.569 61.4417 250.562 63.4006C251.069 63.9146 251.271 64.3128 251.163 64.5952C250.982 65.102 249.939 65.0513 248.991 64.7834C244.958 63.6468 240.867 62.5535 236.827 61.5327C236.179 61.3151 235.473 61.3513 234.851 61.634C234.653 61.7652 234.523 61.9772 234.496 62.2132C234.484 62.5522 234.6 62.8831 234.822 63.14C235.468 63.968 236.242 64.6867 237.117 65.2685C239.652 66.9237 242.35 68.3161 245.168 69.4243C246.891 70.1628 248.665 70.9374 250.323 71.8135C251.646 72.4203 252.806 73.3311 253.711 74.4706C254.392 75.477 254.565 76.9178 253.595 77.7286C252.415 78.706 250.127 78.2137 248.737 77.1422C247.761 76.3241 246.911 75.3655 246.218 74.2969C245.914 73.877 245.617 73.457 245.291 73.0516C243.398 70.7202 240.962 68.8902 238.196 67.7229C236.701 66.9523 235.002 66.6712 233.338 66.9192C232.91 66.9835 232.513 67.184 232.208 67.4912C231.89 67.8532 231.644 68.541 232.368 69.7573Z"   fill="#FFFFFF" >
</path>
</g>
<path d="M192.027 101.715C193.757 99.8468 192.874 91.7959 188.819 88.5017C184.765 85.2075 183.027 86.8583 184.128 88.1615C178.278 83.9043 171.668 83.3251 169.648 83.984C167.628 84.6428 169.966 86.0836 169.966 86.0836C169.966 86.0836 157.774 86.9379 171.168 92.1073C188.602 98.826 190.296 103.583 192.027 101.715Z"   fill="#263238" >
</path>
<path d="M228.755 97.3853C228.755 97.3853 232.194 96.9364 229.942 95.5391C227.691 94.1418 219.394 92.1581 210.641 93.9029C212.509 93.1789 210.981 90.9272 204.783 92.4549C198.586 93.9825 194.452 101.165 195.849 103.576C197.247 105.986 201.127 102.193 224.969 102.576C243.264 102.866 228.755 97.3853 228.755 97.3853Z"   fill="#263238" >
</path>
<path d="M178.712 67.1293C178.712 67.1293 181.362 59.9544 178.864 59.9617C176.366 59.9689 176.287 64.7473 177.242 66.9193C178.292 69.3375 179.183 67.904 178.712 67.1293Z"   fill="#407BFF" >
</path>
<path d="M142.527 113.364C142.527 113.364 140.253 106.03 138.277 107.572C136.3 109.114 139.131 112.922 141.238 114.088C143.54 115.362 143.352 113.668 142.527 113.364Z"   fill="#407BFF" >
</path>
<path d="M178.828 67.5566C178.828 67.5566 175.881 60.4903 174.05 62.1917C172.218 63.8931 175.411 67.4335 177.583 68.4037C179.994 69.5041 179.675 67.8027 178.828 67.5566Z"   fill="#407BFF" >
</path>
<path d="M228.82 69.9962C226.641 67.2739 221.146 76.4254 221.146 76.4254C219.893 76.5847 219.104 78.8146 222.659 77.8444C225.895 76.9611 231 72.7185 228.82 69.9962Z"   fill="#407BFF" >
</path>
<g opacity="0.1">
<path d="M233.439 186.705C235.886 172.797 223.738 155.935 187.907 150.592C128.821 141.752 130.573 180.015 139.066 174.853C133.02 187.161 133.122 203.639 137.835 216.121C142.107 227.452 147.319 219.568 147.319 219.568C147.319 219.568 148.434 247.55 175.353 251.228C193.764 253.726 208.852 227.589 208.852 227.589C208.852 227.589 207.925 233.838 212.805 229.602C228.132 216.244 226.684 189.782 226.684 189.782C226.684 189.782 231.477 197.913 233.439 186.705Z"   fill="#FFFFFF" >
</path>
</g>
<g opacity="0.1">
<path d="M219.133 180.479C224.107 185.786 234.931 161.611 189.239 153.177C161.532 148.065 148.384 156.008 146.711 165.528C145.365 173.195 150.918 169.148 150.918 169.148C150.918 169.148 143.236 185.8 151.215 198.029C153.749 201.909 154.625 197.674 154.625 197.674C154.625 197.674 159.2 218.112 173.376 220.885C194.112 224.947 199.962 206.673 199.962 206.673C199.962 206.673 203.386 214.854 209.135 207.397C214.883 199.94 219.061 187.27 219.133 180.479Z"   fill="#FFFFFF" >
</path>
</g>
<path d="M91.0575 163.544L91.5933 167.65L91.788 168.785C91.1932 169.43 90.3836 170.358 89.6297 171.235C88.8728 172.105 88.075 173.037 87.5244 173.717L91.0575 163.544ZM62.2642 202.995C62.5103 203.582 62.713 204.132 62.9882 204.74L63.8208 206.565C64.1104 207.187 64.4941 207.853 64.8344 208.498C64.9936 208.809 65.2253 209.171 65.4498 209.533C65.6742 209.895 65.848 210.206 66.1303 210.619C66.4127 211.032 66.7023 211.444 66.9991 211.85C67.1656 212.074 67.419 212.393 67.629 212.646L67.962 213.059L68.353 213.493L68.7802 213.949C73.7923 219.266 81.2958 221.443 88.3758 219.634C95.4551 217.824 100.994 212.314 102.84 205.243C104.685 198.173 102.547 190.658 97.2549 185.619L97.588 185.967L97.8776 186.293L98.0224 186.474L98.2685 186.821C98.3264 186.914 98.3771 187.011 98.4206 187.111C98.4336 187.146 98.4336 187.184 98.4206 187.219C98.4206 187.227 98.4267 187.241 98.4325 187.255C98.4435 187.281 98.4537 187.306 98.4206 187.277C98.3699 187.234 98.312 187.241 98.2323 187.176L97.9644 186.908C97.8551 186.789 97.7531 186.664 97.6604 186.531C97.538 186.392 97.4287 186.243 97.3346 186.083C97.0899 185.726 96.8654 185.356 96.6612 184.975C95.6266 183.066 94.7875 181.058 94.1562 178.98C93.758 177.872 93.4467 176.663 93.1354 175.425C92.8241 174.187 92.5634 172.899 92.2738 171.624L91.788 168.785C94.1287 166.246 96.5983 163.828 99.188 161.539C103.245 157.888 107.651 154.646 112.343 151.859C116.713 149.244 121.399 147.198 126.287 145.77C128.572 145.127 130.903 144.667 133.259 144.395C133.839 144.351 134.411 144.279 134.99 144.235L136.706 144.156L138.422 144.156L139.269 144.199L139.696 144.199C139.841 144.199 139.985 144.141 140.152 143.801L144.119 135.75C148.029 127.76 147.288 118.276 142.186 110.989C142.023 110.717 141.73 110.55 141.412 110.548L140.608 110.548L139.008 110.49C138.667 110.49 138.317 110.486 137.964 110.482C137.247 110.474 136.514 110.465 135.801 110.49C134.736 110.526 133.672 110.584 132.615 110.656C131.558 110.729 130.508 110.852 129.451 110.953C125.29 111.442 121.174 112.266 117.143 113.415C109.429 115.645 102.046 118.896 95.1915 123.08C88.6524 127.054 82.5194 131.662 76.8816 136.836C71.3839 141.911 66.3177 147.435 61.7356 153.351C59.7534 155.433 58.5623 158.143 58.369 161.01L58.2025 163.53L57.8478 168.873C57.8328 169.245 57.8163 169.617 57.7998 169.989C57.7364 171.42 57.6727 172.855 57.6957 174.332C57.7039 174.855 57.7069 175.375 57.7098 175.895C57.7175 177.223 57.7251 178.552 57.8188 179.936C57.9491 181.862 58.0143 183.744 58.2677 185.728C58.6808 189.873 59.456 193.975 60.5845 197.985C60.8524 199.042 61.265 200.186 61.627 201.287C61.8008 201.83 62.2642 202.995 62.2642 202.995ZM62.2642 202.995L87.5244 173.717C87.5244 173.717 88.5164 172.531 89.6297 171.235C90.754 169.943 91.788 168.785 91.788 168.785L91.0575 163.544L62.2642 202.995Z" fill-rule="evenodd"  fill="#407BFF" >
</path>
<path d="M246.631 129.285L245.32 128.945L244.668 128.778C244.404 128.711 244.125 128.798 243.944 129.002C236.503 135.867 233.187 146.121 235.199 156.044L236.198 160.938C236.27 161.307 236.408 161.409 236.567 161.452L237.03 161.568L237.964 161.807L239.803 162.321C241.027 162.676 242.236 163.052 243.423 163.472C245.779 164.281 248.09 165.216 250.345 166.274C254.731 168.321 258.862 170.874 262.653 173.883C266.344 176.82 269.635 180.228 272.441 184.019C273.722 185.75 274.899 187.552 275.966 189.417C275.612 189.761 275.235 190.114 274.838 190.47C274.208 191.035 273.484 191.607 272.76 192.186C271.183 193.39 269.539 194.504 267.836 195.524C266.96 196.052 266.055 196.559 265.158 197.03C264.709 197.261 264.26 197.493 263.826 197.688L263.21 197.963C263.109 198.014 262.993 198.065 262.942 198.072C262.928 198.074 262.905 198.082 262.882 198.09C262.822 198.111 262.766 198.13 262.892 198.036C253.399 203.784 250.363 216.139 256.111 225.631C261.859 235.124 274.214 238.159 283.707 232.411C284.177 232.1 284.286 232.006 284.539 231.818L285.147 231.362L286.255 230.471C286.979 229.892 287.66 229.313 288.333 228.726C289.68 227.546 290.968 226.344 292.235 225.106C294.818 222.579 297.236 219.891 299.475 217.055C300.655 215.593 301.749 214.072 302.827 212.443C303.906 210.814 304.941 209.106 305.912 207.289C306.914 205.396 307.801 203.445 308.569 201.446C309.384 199.288 310.035 197.071 310.516 194.814C311.465 191.66 311.363 188.284 310.227 185.192L310.017 184.62C307.365 177.469 303.774 170.703 299.338 164.5C294.876 158.287 289.616 152.688 283.692 147.848C277.859 143.102 271.47 139.083 264.665 135.88C261.336 134.305 257.926 132.906 254.45 131.689C252.727 131.08 250.989 130.53 249.251 130.009L246.631 129.285ZM277.9 187.371L246.631 129.285L276.568 188.819C276.568 188.819 276.175 189.214 275.966 189.417C277.247 191.653 279.326 196.378 279.326 196.378L278.827 186.184L277.9 187.371ZM277.9 187.371L279.326 196.378C278.37 193.979 277.247 191.653 275.966 189.417C276.175 189.214 276.375 189.015 276.568 188.819C277.089 188.291 277.509 187.791 277.9 187.371Z" fill-rule="evenodd"  fill="#407BFF" >
</path>
<g opacity="0.1">
<path d="M134.968 112.828C132.47 112.307 130.211 113.125 129.9 114.573C129.589 116.021 131.319 117.672 133.817 118.193C136.315 118.714 138.574 117.896 138.885 116.448C139.196 114.964 137.466 113.349 134.968 112.828Z"   fill="#000000" >
</path>
</g>
<g opacity="0.1">
<path d="M126.099 117.44C124.456 117.375 123.095 118.113 123.051 119.098C123.008 120.083 124.304 120.944 125.947 121.009C127.591 121.074 128.995 120.336 128.995 119.351C129.039 118.367 127.743 117.505 126.099 117.44Z"   fill="#000000" >
</path>
</g>
<g opacity="0.1">
<path d="M211.734 65.6232C210.539 64.4938 209.164 64.0014 208.657 64.5372C208.15 65.073 208.715 66.4196 209.909 67.549C211.104 68.6785 212.48 69.1636 212.986 68.6278C213.486 68.0993 212.929 66.7526 211.734 65.6232Z"   fill="#000000" >
</path>
</g>
<g opacity="0.1">
<path d="M194.539 84.0637C193.952 82.2247 192.591 81.0374 191.491 81.3704C190.39 81.7034 189.963 83.4845 190.549 85.3234C191.136 87.1624 192.497 88.3715 193.598 88.0167C194.698 87.6692 195.125 85.9026 194.539 84.0637Z"   fill="#000000" >
</path>
</g>
<g opacity="0.1">
<path d="M188.146 79.9007C187.574 78.7858 186.582 78.1631 185.909 78.5034C185.235 78.8437 185.156 80.0238 185.728 81.1388C186.3 82.2538 187.299 82.8764 187.972 82.5361C188.638 82.2103 188.718 81.0157 188.146 79.9007Z"   fill="#000000" >
</path>
</g>
<g opacity="0.1">
<path d="M94.5182 182.875C93.6856 181.435 92.3462 180.667 91.5136 181.145C90.681 181.623 90.6086 183.179 91.405 184.613C92.2014 186.046 93.5481 186.821 94.4096 186.343C95.2712 185.865 95.3508 184.316 94.5182 182.875Z"   fill="#000000" >
</path>
</g>
<g opacity="0.1">
<path d="M88.7914 178.944C88.596 177.916 87.9661 177.156 87.3434 177.257C86.7208 177.358 86.3298 178.271 86.5181 179.306C86.7063 180.341 87.3434 181.101 87.9661 181C88.5815 180.891 88.9869 179.972 88.7914 178.944Z"   fill="#000000" >
</path>
</g>
<g opacity="0.1">
<path d="M80.3134 138.32C80.9795 137.531 81.1243 136.561 80.6464 136.148C80.1686 135.736 79.2274 136.076 78.5613 136.872C77.8952 137.669 77.7432 138.646 78.2283 139.044C78.7134 139.443 79.6473 139.109 80.3134 138.32Z"   fill="#000000" >
</path>
</g>
<g opacity="0.1">
<path d="M71.5529 202.836C70.257 200.121 67.8967 198.55 66.2677 199.324C64.6387 200.099 64.3781 202.923 65.6668 205.638C66.9555 208.353 69.323 209.924 70.952 209.149C72.5956 208.374 72.849 205.551 71.5529 202.836Z"   fill="#000000" >
</path>
</g>
<g opacity="0.1">
<path d="M136.901 159.678C138.327 158.476 138.74 156.601 137.806 155.493C136.872 154.386 134.961 154.465 133.527 155.667C132.094 156.869 131.688 158.744 132.615 159.852C133.549 160.96 135.475 160.88 136.901 159.678Z"   fill="#000000" >
</path>
</g>
<g opacity="0.1">
<path d="M135.482 153.278C136.597 153.104 137.386 152.257 137.249 151.396C137.111 150.534 136.098 149.984 134.983 150.158C133.868 150.331 133.078 151.178 133.216 152.04C133.332 152.923 134.367 153.452 135.482 153.278Z"   fill="#000000" >
</path>
</g>
<g opacity="0.1">
<path d="M144.221 153.148C144.458 152.676 144.37 152.104 144.001 151.726C143.631 151.348 143.062 151.246 142.584 151.472C142.107 151.698 141.826 152.203 141.884 152.728C141.943 153.254 142.329 153.684 142.845 153.799C143.405 153.993 144.017 153.704 144.221 153.148Z"   fill="#000000" >
</path>
</g>
<g opacity="0.1">
<path d="M299.598 202.452C298.549 203.907 298.216 205.768 298.874 206.615C299.533 207.462 300.923 206.963 301.973 205.507C303.023 204.052 303.356 202.184 302.697 201.337C302.045 200.497 300.648 200.997 299.598 202.452Z"   fill="#000000" >
</path>
</g>
<g opacity="0.1">
<path d="M300.236 208.36C299.671 209.446 299.62 210.684 300.105 211.133C300.59 211.582 301.445 211.068 302.002 209.982C302.56 208.896 302.618 207.658 302.133 207.209C301.647 206.76 300.8 207.274 300.236 208.36Z"   fill="#000000" >
</path>
</g>
<g opacity="0.1">
<path d="M104.024 255.21C102.764 256.499 102.171 258.295 102.692 259.228C103.213 260.162 104.661 259.873 105.921 258.584C107.181 257.295 107.774 255.5 107.253 254.566C106.725 253.639 105.284 253.922 104.024 255.21Z"   fill="#000000" >
</path>
</g>
<g opacity="0.1">
<path d="M103.785 261.154C103.076 262.146 102.83 263.362 103.25 263.876C103.67 264.39 104.582 264.007 105.299 263.015C106.015 262.023 106.254 260.806 105.834 260.292C105.422 259.778 104.495 260.162 103.785 261.154Z"   fill="#000000" >
</path>
</g>
<g opacity="0.1">
<path d="M279.761 228.357C277.965 228.892 276.496 230.167 276.517 231.188C276.539 232.208 278.045 232.607 279.84 232.071C281.636 231.535 283.084 230.268 283.084 229.24C283.026 228.219 281.556 227.821 279.761 228.357Z"   fill="#000000" >
</path>
</g>
<g opacity="0.1">
<path d="M211.582 280.673C211.589 282.563 212.4 284.308 213.392 284.576C214.384 284.843 215.18 283.519 215.173 281.629C215.166 279.739 214.355 277.994 213.363 277.727C212.371 277.459 211.575 278.784 211.582 280.673Z"   fill="#000000" >
</path>
</g>
<g opacity="0.1">
<path d="M230.869 166.962C231.875 168.569 233.649 169.481 234.808 169.003C235.966 168.526 236.118 166.831 235.083 165.224C234.047 163.617 232.317 162.705 231.151 163.182C229.986 163.66 229.863 165.354 230.869 166.962Z"   fill="#000000" >
</path>
</g>
<g opacity="0.1">
<path d="M207.289 290.57C208.461 293.133 210.807 295.167 212.581 295.102C214.355 295.037 214.796 292.916 213.631 290.353C212.465 287.79 210.098 285.763 208.346 285.821C206.593 285.886 206.116 288.007 207.289 290.57Z"   fill="#000000" >
</path>
</g>
<g opacity="0.1">
<path d="M306.542 197.398C306.064 198.398 305.89 199.505 306.18 199.846C306.469 200.186 307.092 199.65 307.57 198.651C308.048 197.652 308.214 196.544 307.925 196.204C307.642 195.885 307.02 196.399 306.542 197.398Z"   fill="#000000" >
</path>
</g>
<g opacity="0.1">
<path d="M267.634 143.453C269.393 144.583 271.471 144.916 272.289 144.214C273.107 143.511 272.361 142.02 270.602 140.898C268.843 139.775 266.765 139.413 265.947 140.137C265.129 140.847 265.874 142.324 267.634 143.453Z"   fill="#000000" >
</path>
</g>
<path d="M113.668 240.563L79.1332 241.772L78.554 225.997L111.561 183.23L128.083 182.651L129.596 225.092L138.161 224.795L138.704 239.68L130.146 239.977L130.617 252.886L114.095 253.465L113.668 240.563ZM112.321 203.958L113.118 225.678L94.844 226.315L112.321 203.958Z" fill-rule="evenodd"  fill="#FFFFFF" >
</path>
<path d="M113.299 240.933L113.762 253.48C113.77 253.674 113.929 253.827 114.124 253.827L114.139 253.827L130.66 253.248C130.755 253.246 130.844 253.204 130.906 253.132C130.976 253.064 131.013 252.968 131.008 252.871L130.544 240.332L138.747 240.042C138.844 240.037 138.934 239.996 139.001 239.926C139.066 239.855 139.1 239.762 139.095 239.666L138.552 224.78C138.548 224.684 138.506 224.593 138.435 224.528C138.365 224.463 138.271 224.428 138.175 224.433L129.972 224.722L128.43 182.636C128.419 182.438 128.252 182.284 128.054 182.289L111.532 182.868C111.426 182.875 111.329 182.928 111.264 183.013L78.2499 225.772C78.197 225.84 78.171 225.925 78.1775 226.011L78.7567 241.787C78.7683 241.985 78.9348 242.139 79.1332 242.134L113.299 240.933ZM78.916 226.112L79.4807 241.403L113.653 240.201L113.668 240.201C113.86 240.205 114.015 240.357 114.023 240.549L114.486 253.096L130.284 252.538L129.828 239.991C129.823 239.895 129.857 239.801 129.922 239.731C129.989 239.662 130.08 239.621 130.175 239.615L138.371 239.333L137.842 225.164L129.639 225.446C129.543 225.45 129.45 225.416 129.38 225.351C129.309 225.286 129.267 225.194 129.263 225.099L127.721 183.02L111.728 183.585L78.916 226.112ZM113.451 225.649L112.654 203.929C112.647 203.778 112.548 203.647 112.405 203.601C112.261 203.554 112.104 203.601 112.01 203.719L94.5544 226.098C94.4675 226.207 94.453 226.358 94.5182 226.482C94.5804 226.603 94.7071 226.679 94.844 226.677L94.8585 226.663L113.103 226.025C113.198 226.018 113.288 225.976 113.357 225.91C113.422 225.839 113.456 225.745 113.451 225.649ZM112.712 225.345L111.967 204.957L95.6042 225.953L112.712 225.345Z" fill-rule="evenodd"  fill="#407BFF" >
</path>
<path d="M197.066 199.332C198.547 204.558 199.386 209.946 199.563 215.375C199.563 215.375 200.287 234.163 194.293 243.105L172.971 252.582C167.227 252.775 162.555 252.01 158.954 250.287C155.307 248.526 152.199 245.818 149.955 242.446C149.955 242.446 147.341 238.724 145.727 232.143C144.608 227.361 143.977 222.479 143.844 217.569C143.844 217.569 143.12 197.884 149.839 189.768L170.864 181.145C170.864 181.145 177.749 180.906 182.238 182.47C184.96 183.357 187.47 184.794 189.616 186.691C191.43 188.326 192.985 190.227 194.228 192.33C195.461 194.537 196.415 196.889 197.066 199.332ZM180.312 230.674C179.742 233.647 178.777 235.843 177.416 237.262C176.14 238.638 174.362 239.44 172.486 239.485L165.63 234.894C165.63 234.894 163.153 230.145 162.668 216.954L162.647 216.954L164.124 199.006C164.124 199.006 166.035 194.097 170.741 193.938L177.822 198.427C177.822 198.427 180.305 203.082 180.805 216.838L180.312 230.674Z" fill-rule="evenodd"  fill="#FFFFFF" >
</path>
<path d="M197.449 199.23C196.776 196.761 195.804 194.383 194.553 192.15C193.294 190.014 191.717 188.084 189.876 186.423C187.693 184.493 185.138 183.032 182.368 182.129C179.349 181.08 175.476 180.631 170.864 180.783C161.257 181.123 154.067 184.084 149.557 189.536C145.046 194.988 142.997 204.421 143.482 217.584C143.623 222.518 144.266 227.426 145.401 232.23C146.48 236.639 147.92 240.144 149.673 242.649C151.96 246.068 155.116 248.817 158.817 250.613C162.089 252.184 166.259 252.973 171.248 252.973C171.827 252.973 172.413 252.958 173.036 252.944C183.317 252.575 190.629 249.302 194.626 243.307C198.622 237.313 200.418 227.908 199.954 215.361C199.77 209.903 198.929 204.487 197.449 199.23ZM196.74 199.44C196.095 197.025 195.151 194.7 193.931 192.519C192.712 190.445 191.181 188.572 189.391 186.966C187.285 185.104 184.821 183.693 182.151 182.817C179.255 181.796 175.44 181.369 170.915 181.514C161.503 181.847 154.516 184.7 150.129 189.999C145.741 195.299 143.728 204.581 144.206 217.555C144.348 222.433 144.984 227.285 146.103 232.035C147.167 236.379 148.565 239.782 150.273 242.214C152.485 245.533 155.545 248.2 159.135 249.939C162.668 251.633 167.331 252.401 172.978 252.198C183.049 251.843 190.122 248.708 194.01 242.88C197.898 237.052 199.679 227.756 199.23 215.368C199.042 209.978 198.206 204.631 196.74 199.44ZM165.289 235.061C166.954 238.239 169.3 239.854 172.196 239.854L172.464 239.832C174.434 239.782 176.301 238.939 177.641 237.494C179.045 236.038 180.059 233.707 180.616 230.724C181.174 227.741 181.348 223.057 181.116 216.809C180.783 207.658 179.798 201.482 178.09 198.246C176.381 195.009 173.955 193.446 170.676 193.561C167.396 193.677 165.007 195.56 163.733 198.861C162.458 202.162 161.966 208.273 162.285 216.961C162.61 225.772 163.624 231.883 165.289 235.061ZM179.885 230.608C180.428 227.72 180.609 223.043 180.37 216.852C180.037 207.781 179.052 201.648 177.431 198.6C175.809 195.552 173.63 194.198 170.683 194.3C167.736 194.401 165.615 195.987 164.384 199.136C163.153 202.286 162.654 208.331 162.972 216.939L163.009 216.939C163.327 225.627 164.312 231.622 165.905 234.721C167.497 237.819 169.626 239.224 172.421 239.123C174.2 239.075 175.886 238.313 177.098 237.009C178.401 235.655 179.342 233.497 179.885 230.608Z" fill-rule="evenodd"  fill="#407BFF" >
</path>
<path d="M160.989 187.646L156.283 184.374L155.935 184.946L160.761 187.864L160.663 190.904C160.653 190.926 160.653 190.949 160.663 190.97L162.574 192.316L160.763 190.873L161.061 187.799C161.063 187.739 160.989 187.646 160.989 187.646ZM160.761 190.872L160.989 187.646L160.764 187.755L160.761 187.864L160.757 190.868L160.757 190.933L160.761 190.872Z" fill-rule="evenodd"  fill="#407BFF" >
</path>
<path d="M157.878 188.609L157.868 188.631L158.904 186.459L159.512 186.886L158.115 188.841L158.078 188.841L156.102 189.876L157.878 188.609Z" fill-rule="evenodd"  fill="#407BFF" >
</path>
<path d="M179.732 240.909L181.152 244.56L180.247 240.672C180.238 240.647 180.226 240.622 180.211 240.6L180.211 240.564L177.467 237.27L176.547 238.196L179.732 240.909Z" fill-rule="evenodd"  fill="#407BFF" >
</path>
<path d="M178.937 239.839L184.2 238.073L178.748 239.137L178.937 239.839Z"   fill="#407BFF" >
</path>
<path d="M257.317 235.524L257.795 248.433L241.273 249.012L240.795 236.096L206.268 237.305L205.688 221.544L238.696 178.777L255.217 178.198L256.774 220.639L265.339 220.342L265.882 235.227L257.317 235.524ZM239.456 199.491L240.252 221.211L222.007 221.862L239.456 199.491Z" fill-rule="evenodd"  fill="#FFFFFF" >
</path>
<path d="M266.244 235.199L265.701 220.313C265.697 220.217 265.655 220.127 265.585 220.061C265.514 219.996 265.42 219.962 265.324 219.966L257.121 220.255L255.579 178.169C255.576 178.073 255.534 177.983 255.463 177.917C255.392 177.852 255.299 177.818 255.203 177.822L238.681 178.401C238.572 178.407 238.472 178.46 238.406 178.546L205.399 221.305C205.347 221.371 205.321 221.454 205.326 221.537L205.906 237.32C205.908 237.416 205.948 237.506 206.017 237.571C206.087 237.637 206.179 237.671 206.275 237.668L240.448 236.466L240.911 249.013C240.919 249.207 241.079 249.36 241.273 249.36L241.28 249.36L257.802 248.781C257.899 248.781 257.992 248.739 258.055 248.665C258.121 248.594 258.157 248.502 258.157 248.405L257.693 235.865L265.896 235.575C265.992 235.57 266.083 235.529 266.15 235.459C266.215 235.389 266.249 235.295 266.244 235.199ZM265.505 234.866L264.984 220.697L256.781 220.987C256.685 220.991 256.591 220.956 256.521 220.891C256.45 220.826 256.408 220.735 256.405 220.639L254.848 178.56L238.855 179.118L206.05 221.646L206.615 236.929L240.788 235.735L240.795 235.735C240.99 235.735 241.149 235.888 241.157 236.082L241.62 248.629L257.418 248.072L256.955 235.525C256.95 235.323 257.108 235.156 257.31 235.148L265.505 234.866ZM221.677 222.008C221.739 222.134 221.868 222.212 222.007 222.21L222.015 222.196L240.267 221.559C240.361 221.549 240.45 221.508 240.52 221.443C240.583 221.37 240.616 221.278 240.614 221.182L239.818 199.462C239.808 199.31 239.708 199.178 239.564 199.129C239.419 199.082 239.259 199.131 239.166 199.252L221.718 221.624C221.631 221.734 221.616 221.883 221.677 222.008ZM239.876 220.885L239.13 200.49L222.767 221.486L239.876 220.885Z" fill-rule="evenodd"  fill="#407BFF" >
</path>
<path d="M248.52 190.6C248.528 190.579 248.528 190.556 248.52 190.535L248.086 185.228L248.366 190.504L242.989 194.256C242.937 194.295 242.911 194.359 242.924 194.423L243.519 198.395L239.333 200.432L239.644 201.076L243.937 198.752C244.026 198.705 244.076 198.606 244.06 198.506L243.944 197.873L248.137 190.886L248.52 190.6ZM248.146 190.871L248.137 190.886L243.32 194.478L243.3 194.372L248.146 190.871ZM248.146 190.871L248.366 190.504L248.404 190.477L248.52 190.6L248.146 190.871ZM243.32 194.478L243.519 198.395L243.677 198.318L243.944 197.873L243.32 194.478Z" fill-rule="evenodd"  fill="#407BFF" >
</path>
<path d="M84.7042 235.404L84.7875 235.3L84.6209 234.945L88.5472 235.562L92.9397 233.114L92.9397 233.157L94.8873 226.301L93.0845 233.201C93.0787 233.219 93.0657 233.235 93.0483 233.244L88.7043 235.879C88.6695 235.894 88.6305 235.894 88.5957 235.879L84.7042 235.404ZM84.7042 235.404L84.6209 234.945C84.5399 234.932 84.4566 234.962 84.4037 235.025L78.8362 241.541L79.4081 241.968L84.7042 235.404Z" fill-rule="evenodd"  fill="#407BFF" >
</path>
<path d="M93.1795 233.144L93.1498 233.099L95.1915 236.538L92.882 233.323C92.861 233.28 92.861 233.229 92.882 233.186L94.5834 226.257L95.206 226.409L93.1795 233.144ZM93.1795 233.144L95.1915 236.538C95.2067 236.559 95.2306 236.572 95.2567 236.574L100.687 236.494L95.2567 236.422L95.3218 236.422L93.1795 233.144Z" fill-rule="evenodd"  fill="#407BFF" >
</path>
<path d="M244.893 192.982L243.105 191.339L241.106 190.839L243.061 191.483L243.025 191.483L244.386 193.511L244.893 192.982Z"   fill="#407BFF" >
</path>
<path d="M96.6251 197.109C100.477 198.086 105.357 195.075 108.81 194.734C106.587 190.644 96.502 187.567 95.054 190.868C94.0621 193.192 94.4024 196.552 96.6251 197.109Z"   fill="#263238" >
</path>
<path d="M92.4112 203.241C96.2484 205.536 102.468 203.871 106.29 204.595C105.219 199.484 95.3144 192.924 92.737 196.023C90.9198 198.209 90.2102 201.931 92.4112 203.241Z"   fill="#263238" >
</path>
<path d="M86.3224 210.308C88.994 213.891 95.3797 214.695 98.6304 216.867C99.6006 211.727 92.9543 201.88 89.385 203.763C86.8799 205.088 84.7876 208.252 86.3224 210.308Z"   fill="#263238" >
</path>
<path d="M77.7286 213.515C78.0255 217.033 81.9713 220.248 83.26 223.043C86.0764 219.995 85.7144 210.619 82.536 210.394C80.2699 210.235 77.5549 211.495 77.7286 213.515Z"   fill="#263238" >
</path>
<path d="M251.546 200.49C254.587 202.162 257.896 206.839 261.827 207.455C264.101 207.788 265.708 204.892 265.708 202.329C265.708 198.709 255.195 197.594 251.546 200.49Z"   fill="#263238" >
</path>
<path d="M249.512 214.854C253.385 215.267 258.83 218.699 263.174 217.635C265.657 217.026 266.07 213.262 264.984 210.641C263.427 206.919 252.039 210.279 249.512 214.854Z"   fill="#263238" >
</path>
<path d="M252.234 224.838C256.072 224.114 262.269 225.881 266.128 223.629C268.351 222.34 267.677 218.648 265.882 216.411C263.341 213.283 253.364 219.734 252.234 224.838Z"   fill="#263238" >
</path>
<path d="M259.025 233.128C262.088 232.802 266.866 235.481 270.037 233.939C271.862 233.048 271.551 230.073 270.262 228.234C268.445 225.62 261.016 229.269 259.025 233.128Z"   fill="#263238" >
</path>
</svg>
