<svg xmlns="http://www.w3.org/2000/svg" xmlns:xlink="http://www.w3.org/1999/xlink" width="105.35726928710938" height="97.493896484375" viewBox="0 0 105.35726928710938 97.493896484375" fill="none">
<rect  x="7.860443115234375" y="23.993896484375" width="83" height="73" rx="36.5"    fill="#EBCB94" fill-opacity="0.42">
</rect>
<path   fill="rgba(0, 0, 0, 1)"  d="M44.3604 23.4939L54.3604 23.4939C74.795 23.4939 91.3604 40.0594 91.3604 60.4939C91.3604 80.9284 74.795 97.4939 54.3604 97.4939L44.3604 97.4939C23.9259 97.4939 7.36044 80.9284 7.36044 60.4939Q7.36044 45.168 18.1975 34.3309Q29.0345 23.4939 44.3604 23.4939ZM44.3604 24.4939Q29.4488 24.4939 18.9046 35.0381Q8.36044 45.5823 8.36044 60.4939C8.36044 80.3761 24.4782 96.4939 44.3604 96.4939L54.3604 96.4939C74.2427 96.4939 90.3604 80.3761 90.3604 60.4939C90.3604 40.6116 74.2427 24.4939 54.3604 24.4939L44.3604 24.4939Z">
</path>
<path d="M26.5943 18.1919C26.9913 19.8459 27.2793 21.5299 27.7473 23.1619C27.8603 23.5519 28.4983 23.7919 28.8943 24.1009C29.1383 23.7219 29.5273 23.3129 29.4923 23.1429C28.2283 16.9599 27.0033 11.0659 25.7393 5.17893C25.6853 4.92893 25.1773 4.54492 24.9943 4.59992C24.5753 4.72592 23.9723 5.03293 23.9033 5.36292C23.7643 6.02392 23.8323 6.77392 23.9893 7.44592C24.8303 11.0349 25.7343 14.6079 26.5943 18.1919Z"   fill="#000000" >
</path>
<path d="M85.2763 15.2169C82.8623 18.2749 80.5053 21.3779 78.1363 24.4709C77.6993 25.0419 77.2063 25.7429 77.9983 26.3109C78.6853 26.8029 79.1533 26.1609 79.5503 25.6499C80.1603 24.8669 80.7413 24.0619 81.3703 23.2949C84.2443 19.7899 87.1363 16.2999 90.0073 12.7929C90.3963 12.3179 90.6993 11.7729 91.0553 11.2419C90.8013 10.8819 90.6253 10.4609 90.4933 10.4739C89.9893 10.5259 89.3373 10.5629 89.0343 10.8839C87.7223 12.2719 86.4603 13.7169 85.2763 15.2169Z"   fill="#000000" >
</path>
<path d="M56.7583 2.42193C56.7643 2.35193 56.7813 2.27992 56.7743 2.21092C56.6863 1.38392 57.3153 0.111926 55.9203 0.00492712C54.6963 -0.0880752 54.9113 1.15692 54.8223 1.92993C54.2493 6.92293 53.7163 11.9209 53.1783 16.9179C53.1333 17.3379 53.0403 17.8029 53.1723 18.1749C53.2903 18.5089 53.6463 18.8589 53.9773 18.9759C54.1553 19.0389 54.5613 18.6719 54.7523 18.4149C54.9053 18.2099 54.9093 17.8819 54.9433 17.6029C55.5733 12.5459 56.1973 7.48793 56.8233 2.42993L56.7583 2.42193Z"   fill="#000000" >
</path>
<path d="M104.197 32.1709C104.665 31.7889 105.042 31.2949 105.357 30.9629C105.195 29.9959 104.746 29.7079 104.102 29.8879C103.712 29.9959 103.353 30.2749 103.027 30.5359C99.6543 33.2389 96.2903 35.9509 92.9293 38.6689C92.6023 38.9339 92.2443 39.2089 92.0383 39.5609C91.8863 39.8179 91.8143 40.3419 91.9673 40.5079C92.2063 40.7689 92.6833 40.9769 93.0273 40.9349C93.4073 40.8889 93.7753 40.5679 94.1073 40.3129C94.8383 39.7539 95.5423 39.1589 96.2593 38.5809C98.9073 36.4469 101.563 34.3229 104.197 32.1709Z"   fill="#000000" >
</path>
<path d="M2.13028 22.9989C1.80428 22.6619 1.35828 22.4409 1.09927 22.2579C0.222274 22.2819 -0.219727 23.0029 0.108276 23.6559C0.293274 24.0239 0.610275 24.3339 0.901275 24.6379C3.58928 27.4539 6.28227 30.2649 8.98128 33.0709C9.32327 33.4259 9.66228 33.8359 10.0883 34.0379C10.4083 34.1899 10.9943 34.1969 11.2273 33.9959C11.4573 33.7979 11.4973 33.2369 11.4263 32.8729C11.3663 32.5639 11.0513 32.2869 10.8103 32.0339C7.92427 29.0159 5.03728 25.9979 2.13028 22.9989Z"   fill="#000000" >
</path>
<path d="M56.7333 70.8449C59.9273 69.1609 62.2493 66.6189 63.8323 63.417C64.4573 62.152 64.8823 60.783 65.3413 59.442C65.3656 59.371 65.3916 59.2987 65.4179 59.2255C65.658 58.558 65.9258 57.8136 65.1923 57.291C64.464 56.772 63.922 57.2526 63.4051 57.7108C63.3244 57.7824 63.2443 57.8534 63.1643 57.92C63.0003 58.056 62.8403 58.198 62.6743 58.332C55.6253 64.0109 46.3383 63.58 39.8213 57.273C39.5173 56.978 39.2373 56.627 38.8763 56.428C38.1233 56.013 37.2233 56.413 37.0483 57.252C36.9503 57.725 36.9843 58.246 37.0563 58.732C37.5753 62.264 38.9163 65.436 41.3613 68.072C43.8983 70.807 47.0243 72.3029 51.2973 72.3339C52.8933 72.31 54.8753 71.824 56.7333 70.8449ZM62.2423 61.2579C54.4383 65.7189 46.9653 65.3539 39.7573 60.1249C39.8893 64.8629 44.8653 69.8199 49.8013 70.2909C54.9953 70.7859 60.9903 66.5589 62.2423 61.2579Z" fill-rule="evenodd"  fill="#000000" >
</path>
<path d="M61.9013 51.8049C63.1693 51.8419 64.3103 50.5839 64.3453 49.1109C64.3753 47.8249 63.2653 46.6179 62.0023 46.5639C60.8373 46.5129 59.7813 47.7219 59.7393 49.1549C59.6963 50.6099 60.6413 51.7689 61.9013 51.8049Z"   fill="#000000" >
</path>
<path d="M40.9713 46.4509C39.7333 46.5059 38.7773 47.7109 38.8433 49.1319C38.9123 50.6119 39.7713 51.6059 40.9443 51.5639C42.2823 51.5159 43.2563 50.4289 43.2223 49.0219C43.1863 47.5449 42.1813 46.3959 40.9713 46.4509Z"   fill="#000000" >
</path>
</svg>
