<svg xmlns="http://www.w3.org/2000/svg" xmlns:xlink="http://www.w3.org/1999/xlink" width="238.36004638671875" height="238.3599853515625" viewBox="0 0 238.36004638671875 238.3599853515625" fill="none">
<path d="M162.062 159.589C183.43 134.833 180.802 97.5435 156.191 76.3007C131.58 55.058 94.3066 57.906 72.9385 82.6618C51.5705 107.418 54.1993 144.708 78.81 165.95C103.421 187.193 140.694 184.345 162.062 159.589Z"   fill="#ECF3FF" fill-opacity="0">
</path>
<path d="M171.249 93.9957L168.012 89.6374L129.07 83.4015L118.89 63.6634L116.956 65.9043L119.878 89.5464L108.154 101.328L89.4405 114.899L77.5156 117.904L69.5677 129.815L75.4777 136.481L81.5993 140.2L86.1728 145.713L100.561 147.963L110.468 140.088L130.894 138.946L132.701 146.764L131.413 158.167L119.032 172.51L127.264 176.487L146.715 167.465L164.748 150.177L171.249 93.9957Z"   fill="#E5E5E5" >
</path>
<path d="M78.9507 93.1684C80.1885 91.7343 81.504 90.2102 83.0869 88.9169C84.5805 87.5466 85.9848 86.0998 87.6686 85.0499C94.0233 80.21 101.304 76.639 108.815 75.1439C110.135 74.8755 111.289 74.6198 112.621 74.5177L111.86 67.2915C110.219 67.752 108.578 68.2122 107.025 68.7497C98.7759 71.641 91.4225 76.5573 85.483 82.5376C83.912 83.9975 82.6082 85.6879 81.2927 87.212C79.8999 88.8256 78.7627 90.5036 77.6372 92.348C75.3749 95.8699 73.5459 99.6103 72.1391 103.402C74.0572 99.7384 76.3315 96.383 78.9507 93.1684Z"   fill="#94A6C4" >
</path>
<path d="M135.511 67.8345C131.229 66.4863 125.704 65.3169 121.951 65.52C123.251 68.5199 125.133 72.6483 126.433 75.6482C128.483 71.471 131.734 67.7044 135.511 67.8345Z"   fill="#94A6C4" >
</path>
<path d="M87.6035 98.2883L85.8705 101.017L88.0493 98.673C88.3587 98.3146 88.7456 97.8663 89.1445 97.5847L90.329 96.5728C91.1146 95.8428 91.9894 95.1897 92.6976 94.5494C93.4834 93.8194 94.3698 93.3331 95.1674 92.7696C98.6009 90.4138 102.338 88.7884 106.187 87.5732C108.727 86.7932 111.291 86.3463 113.866 86.066L113.253 79.7473C109.957 80.5013 107.107 81.6402 104.281 83.1122C100.324 85.1731 96.6582 87.798 93.6049 90.7949C92.8192 91.5249 92.0333 92.2552 91.4258 93.1391C90.7295 93.9459 90.0329 94.7528 89.4256 95.6368L88.4312 96.969C88.1216 97.3277 87.8239 97.853 87.6035 98.2883Z"   fill="#94A6C4" >
</path>
<path d="M163.524 105.466C163.524 105.466 153.698 110.904 142.005 101.75C142.016 101.916 146.981 116.524 169.113 112.323C165.86 106.543 163.524 105.466 163.524 105.466Z"   fill="#94A6C4" >
</path>
<path d="M136.139 166.928C158.753 154.063 158.747 132.626 158.63 130.96C149.673 140.437 138.924 137.573 133.66 131.778C130.838 128.561 124.799 126.007 124.799 126.007L109.851 131.252L107.271 130.277L116.074 126.925C116.074 126.925 105.499 122.959 104.643 122.69C103.787 122.421 98.1189 123.942 92.7415 126.028C94.6174 122.953 94.5487 119.609 94.6264 119.519C94.2392 119.967 88.1661 128.806 85.2514 130.201C82.2589 131.685 76.5757 129.439 76.5757 129.439L80.904 137.399L81.1948 137.963L89.9545 137.545L97.6178 132.27L101.24 132.58C101.24 132.58 107.307 136.722 102.171 141.05C99.7259 143.163 97.2067 140.676 92.551 139.943C89.84 139.48 86.0522 139.183 83.8874 139.348L85.0842 144.449C85.0842 144.449 89.4588 147.13 98.6096 147.519C108.005 147.806 109.42 140.58 109.42 140.58L127.786 137.503L133.281 143.029C133.281 143.029 141.198 154.399 136.139 166.928Z"   fill="#94A6C4" >
</path>
<path d="M161.781 80.7124C161.781 80.7124 161.781 80.7124 161.781 80.7124C161.781 80.7126 161.782 80.7127 161.782 80.7128C161.782 80.7127 161.781 80.7126 161.781 80.7124ZM161.781 80.7124C155.468 86.4339 149.868 91.7096 142.338 98.9376C138.225 96.7904 136.12 96.4241 133.819 97.2298C130.671 98.3386 129.148 98.1265 127.177 97.5318C125.215 96.8191 107.75 91.0093 105.803 90.0609C103.739 89.1052 97.0926 82.4215 94.745 82.1588C92.3987 81.8961 81.9088 83.1454 80.2035 85.6452C79.0085 87.5845 76.4462 92.2811 75.738 95.7895C75.4229 96.954 75.4616 98.1404 75.8926 98.7589C77.2652 101.211 77.4615 101.815 77.2406 103.341L77.0989 103.687C76.9413 104.27 76.6591 104.963 76.4778 105.899C76.1072 107.889 75.933 110.482 77.2035 112.692C79.353 115.902 81.9486 121.271 83.3608 123.134C85.3378 125.387 88.1868 126.983 91.4848 127.185C94.4288 127.366 96.6497 129.516 98.8535 131.901C100.832 134.154 105.657 139.778 107.751 142.038C105.503 147.346 97.5962 148.872 93.3558 148.612C81.5796 147.888 65.0286 137.28 65.2054 115.269C65.2609 114.444 65.1984 113.611 65.2617 112.668C67.1785 84.1339 93.9482 62.3377 123.507 64.1553C146.806 65.588 161.647 80.5632 161.781 80.7124C161.781 80.7124 161.781 80.7124 161.781 80.7124C151.825 68.7344 137.311 61.0971 120.589 60.0689C88.0867 58.0702 59.929 82.8594 57.743 115.402C55.557 147.945 80.1664 175.979 112.669 177.977C123.267 178.629 133.691 176.547 142.62 172.123C141.536 174.188 140.016 175.752 138.617 177.205C176.072 168.853 174.262 134.17 174.075 133.448C175.315 134.353 177.111 137.542 177.981 140.437C177.981 140.437 184.145 126.135 175.854 112.246C177.957 112.612 180.963 115.402 180.963 115.402C174.304 96.5226 164.962 94.7642 159.076 97.9541C160.687 95.0933 162.182 92.2253 163.793 89.3645C168.76 80.5534 172.933 72.996 173.083 72.5316C173.373 71.7206 173.044 71.3452 173.044 71.3452C173.044 71.3452 172.714 70.9698 171.96 71.6338C168.182 74.9602 164.895 77.8905 161.781 80.7124C161.781 80.7126 161.782 80.7127 161.782 80.7128C161.782 80.7127 161.781 80.7126 161.781 80.7124ZM77.2406 103.341C77.4615 101.815 77.2652 101.211 75.8926 98.7589C75.4616 98.1404 75.4229 96.954 75.738 95.7895C76.4462 92.2811 79.0085 87.5845 80.2035 85.6452C81.9088 83.1454 92.3987 81.8961 94.745 82.1588C97.0926 82.4215 103.739 89.1052 105.803 90.0609C107.75 91.0093 125.215 96.8191 127.177 97.5318C129.148 98.1265 130.671 98.3386 133.819 97.2298C136.12 96.4241 138.225 96.7904 142.338 98.9376C149.868 91.7096 155.468 86.4339 161.781 80.7124C161.647 80.5632 146.806 65.588 123.507 64.1553C93.9482 62.3377 67.1785 84.1339 65.2617 112.668C65.1984 113.611 65.2609 114.444 65.2054 115.269C65.0286 137.28 81.5796 147.888 93.3558 148.612C97.5962 148.872 105.503 147.346 107.751 142.038C105.657 139.778 100.832 134.154 98.8535 131.901C96.6497 129.516 94.4288 127.366 91.4848 127.185C88.1868 126.983 85.3378 125.387 83.3608 123.134C81.9486 121.271 79.353 115.902 77.2035 112.692C75.933 110.482 76.1072 107.889 76.4778 105.899C76.6591 104.963 76.9413 104.27 77.0989 103.687L77.2406 103.341ZM88.6146 106.526C91.4886 107.769 96.2847 108.537 97.3509 110.26C98.3083 111.858 98.3383 114.939 97.2454 117.121C97.6001 115.367 97.1608 113.09 97.1608 113.09C97.1608 113.09 97.0332 116.753 94.1438 117.522C91.3643 118.417 90.1631 116.922 89.1443 114.492C88.3366 112.429 83.9207 106.001 81.8336 103.623L81.1175 107.249C80.7786 108.768 80.9512 109.726 81.2642 110.337C82.2296 111.817 83.1699 113.651 84.2374 115.374C85.1857 117.09 86.5583 119.542 87.1073 120.168C88.3232 121.426 90.0267 122.478 92.0284 122.601C92.1463 122.609 92.1463 122.609 92.5002 122.63C98.074 122.381 101.933 117.764 102.168 116.003C102.303 113.998 102.485 111.286 102.078 110.314C104.189 112.338 104.855 114.747 105.049 117.127C109.822 120.025 119.702 126.079 120.228 127.058C120.542 127.67 120.572 128.974 120.783 131.118C120.704 132.297 120.812 134.198 121.032 134.448C121.699 135.081 132.325 142.365 133.118 142.887C133.942 142.938 140.64 141.811 147.118 140.433C144.044 133.377 146.608 126.905 146.608 126.905C146.608 126.905 146.981 131.9 153.063 138.194C159.144 144.488 169.956 141.956 169.956 141.956C169.956 141.956 148.481 120.153 148.387 118.016C148.302 115.761 151.199 114.874 151.199 114.874C151.199 114.874 140.777 108.076 136.892 106.062C133.015 103.929 128.831 104.619 126.654 105.314C124.471 106.127 119.045 107.687 114.855 103.167C116.921 104.123 120.807 102.586 123.131 101.427C117.92 99.804 105.549 95.6099 103.602 94.6613C102.22 94.1028 100.761 92.9475 98.2972 90.9017C96.9475 89.8715 94.7187 87.8401 93.5733 87.2961C91.3278 87.2765 85.7132 88.1152 83.8841 88.9499C82.9487 90.5499 81.7299 92.8428 81.0067 94.8111C80.8254 95.7471 81.0909 97.0658 82.2526 99.1499C84.4872 102.839 85.6251 105.277 88.6146 106.526ZM146.361 144.649C140.614 145.716 131.632 147.413 131.169 147.267C130.469 147.105 125.031 143.574 124.811 143.324C124.718 142.963 125.142 140.147 125.332 139.094C122.616 137.269 120.136 135.459 119.799 135.201C119.359 134.701 119.203 133.507 119.126 131.135C119.087 129.948 118.987 127.929 118.767 127.679C118.108 126.928 110.173 121.823 104.609 118.402C104.521 121.475 103.412 123.893 103.019 124.461C110.969 131.107 115.025 135.855 114.843 136.791C114.772 137.852 111.816 146.668 116.938 153.14C121.952 159.486 132.458 158.001 133.415 157.823C112.065 164.088 108.861 150.157 108.629 144.815C105.964 149.269 98.2022 159.21 83.033 159.698C99.9353 175.655 130.627 172.925 146.361 144.649ZM148.763 105.371C149.534 104.471 152.701 99.5748 156.291 93.639C157.486 91.6998 158.814 89.5319 160.143 87.3641C158.619 88.9279 157.095 90.4918 155.57 92.0555C150.362 97.4183 146.017 102.242 145.365 103.149C144.587 104.167 144.305 104.86 145.089 105.5C146.548 106.655 147.766 106.138 148.513 105.592C148.638 105.482 148.763 105.371 148.763 105.371ZM92.8362 110.575C92.0288 110.288 89.3353 109.886 88.0094 108.502C88.2294 108.752 89.7438 110.858 90.269 111.838C90.9984 113.303 90.9976 115.079 92.6295 115.416C94.3805 115.761 95.2376 113.564 95.1909 112.495C95.1442 111.427 93.6449 110.861 92.8362 110.575Z" fill-rule="evenodd"  fill="#FFFFFF" fill-opacity="0">
</path>
<path d="M161.712 96.393L147.028 98.2705C146.939 98.1935 148.869 100.642 154.31 100.644C158.741 100.556 161.712 96.393 161.712 96.393Z"   fill="#1C324F" >
</path>
<path d="M89.7314 121.398C89.7314 121.398 81.6433 123.023 80.6676 123.433C79.6146 123.933 78.4769 125.611 79.647 126.777C80.8167 127.943 83.9028 127.79 85.1646 126.689C86.9025 125.215 85.388 123.908 85.388 123.908L89.7314 121.398Z"   fill="#1C324F" >
</path>
<path d="M128.977 116.478C132.575 116.454 135.623 112.201 133.421 108.267C136.038 107.397 141.071 105.17 141.071 105.17C141.071 105.17 117.889 108.784 116.842 108.194C115.796 107.604 118.381 103.889 118.381 103.889C110.058 108.126 113.21 113.663 115.881 112.37C118.787 114.409 125.457 116.412 128.977 116.478Z"   fill="#1C324F" >
</path>
<g filter="url(#filter_uxHShihDd3)">
<path d="M128.446 113.678C131.919 113.078 130.882 109.054 130.882 109.054L118.334 111.52C118.334 111.52 124.218 114.252 128.446 113.678Z"   fill="#00BAAD" >
</path>
</g>
<path d="M141.066 89.6896C146.65 89.3452 151.406 90.3204 155.554 92.1797L163.524 91.2336C153.862 84.772 142.536 87.9857 141.066 89.6896Z"   fill="#D82423" >
</path>
<path d="M177.897 122.879C176.792 109.563 173.173 100.962 168.444 95.6289C167.539 97.0382 166.467 98.4605 165.372 99.549C171.093 105.895 174.789 114.406 177.897 122.879Z"   fill="#000000" >
</path>
<path d="M156.608 160.501C184.845 128.869 163.601 107.717 161.943 106.755C161.943 106.755 174.234 132.695 156.608 160.501Z"   fill="#000000" >
</path>
<path d="M145.085 67.6366C145.137 67.6206 145.176 67.6063 145.2 67.5933C145.192 67.5939 145.152 67.6083 145.085 67.6366ZM132.525 87.3204C130.903 74.4419 143.725 68.2082 145.085 67.6366C143.177 68.2192 122.904 70.9448 132.525 87.3204Z" fill-rule="evenodd"  fill="#D82423" >
</path>
<path d="M162.001 79.1229C161.222 78.7637 140.142 69.4842 137.631 88.4328C137.631 88.4328 150.627 75.719 162.001 79.1229Z"   fill="#D82423" >
</path>
<defs>
<filter id="filter_uxHShihDd3" x="114.33416748046875" y="107.0540771484375" width="21.584808349609375" height="13.1981201171875" filterUnits="userSpaceOnUse" color-interpolation-filters="sRGB">
<feFlood flood-opacity="0" result="feFloodId_uxHShihDd3"/>
<feGaussianBlur in="feFloodId_uxHShihDd3" stdDeviation_bg="2" type="BackgroundImage" />
<feComposite in2="SourceAlpha" operator="in" result="background_Blur_uxHShihDd3"/>
<feColorMatrix in="SourceAlpha" type="matrix" values="0 0 0 0 0 0 0 0 0 0 0 0 0 0 0 0 0 0 127 0" result="hardAlpha_uxHShihDd3"/>
<feOffset dx="0" dy="2"/>
<feGaussianBlur stdDeviation="2"/>
<feComposite in2="hardAlpha_uxHShihDd3" operator="out"/>
<feColorMatrix type="matrix" values="0 0 0 0 0 0 0 0 0 0 0 0 0 0 0 0 0 0 0.25 0"/>
<feBlend mode="normal" in2="feFloodId_uxHShihDd3" result="dropShadow_1_uxHShihDd3"/>
<feBlend mode="normal" in="SourceGraphic" in2="background_Blur_uxHShihDd3" result="shape_uxHShihDd3"/>
<feBlend mode="normal" in="SourceGraphic" in2="dropShadow_1_uxHShihDd3" result="shape_uxHShihDd3"/>
</filter>
</defs>
</svg>
