<svg xmlns="http://www.w3.org/2000/svg" xmlns:xlink="http://www.w3.org/1999/xlink" width="58" height="51" viewBox="0 0 58 51" fill="none">
<path d="M4.9 49.67L9.16 29.07L24.51 15.27L20.58 8.18L1.15 43L4.9 49.67ZM22.53 35.5L18.58 42.5L56.58 42.5L33.41 1L25.36 1L34.89 17.87L44.43 34.75C44.4741 34.8245 44.5 34.9072 44.5 35C44.5 35.2759 44.2761 35.5 44 35.5L22.53 35.5ZM34 0L24.51 0L24.49 0L24 0L0 43L4.5 51L54 51L58 43L34 0ZM25.07 16.29L20.58 35.5L5.86 50L13.21 50L28.56 22.75C28.5739 22.725 28.5926 22.7114 28.61 22.69L25.07 16.29ZM36.29 34.5L43.14 34.5L24.4 1.34L21.15 7.15L25.62 15.22L25.67 15.25L25.65 15.28L36.29 34.5ZM23.09 34.5L35.15 34.5L29.18 23.71L23.09 34.5ZM18.02 43.5L14.36 50L53.38 50L56.63 43.5L18.02 43.5Z" fill-rule="evenodd"  fill="url(#linear_fill_0_13)" fill-opacity="1">
</path>
<defs>
<linearGradient id="linear_fill_0_13" x1="0" y1="46.53857421875" x2="54.8975830078125" y2="14.5467529296875" gradientUnits="userSpaceOnUse">
<stop offset="0" stop-color="#43CF7C" stop-opacity="0.52" />
<stop offset="0.125" stop-color="#3B1CFE" stop-opacity="0.31" />
<stop offset="0.2639" stop-color="#38AEA8"  />
<stop offset="1" stop-color="#2A82E4"  />
</linearGradient>
</defs>
</svg>
